<svg width="120" height="120" viewBox="0 0 120 120" fill="none" xmlns="http://www.w3.org/2000/svg"><rect x="0" y="0" width="11" height="11" fill='none'/><rect x="10" y="0" width="11" height="11" fill='none'/><rect x="20" y="0" width="11" height="11" fill='none'/><rect x="30" y="0" width="11" height="11" fill='none'/><rect x="40" y="0" width="11" height="11" fill='none'/><rect x="50" y="0" width="11" height="11" fill='yellow'/><rect x="60" y="0" width="11" height="11" fill='yellow'/><rect x="70" y="0" width="11" height="11" fill='none'/><rect x="80" y="0" width="11" height="11" fill='none'/><rect x="90" y="0" width="11" height="11" fill='none'/><rect x="100" y="0" width="11" height="11" fill='none'/><rect x="110" y="0" width="11" height="11" fill='none'/><rect x="0" y="10" width="11" height="11" fill='none'/><rect x="10" y="10" width="11" height="11" fill='none'/><rect x="20" y="10" width="11" height="11" fill='none'/><rect x="30" y="10" width="11" height="11" fill='yellow'/><rect x="40" y="10" width="11" height="11" fill='yellow'/><rect x="50" y="10" width="11" height="11" fill='#c68f27'/><rect x="60" y="10" width="11" height="11" fill='#c68f27'/><rect x="70" y="10" width="11" height="11" fill='gray'/><rect x="80" y="10" width="11" height="11" fill='lightgray'/><rect x="90" y="10" width="11" height="11" fill='none'/><rect x="100" y="10" width="11" height="11" fill='none'/><rect x="110" y="10" width="11" height="11" fill='none'/><rect x="0" y="20" width="11" height="11" fill='none'/><rect x="10" y="20" width="11" height="11" fill='yellow'/><rect x="20" y="20" width="11" height="11" fill='yellow'/><rect x="30" y="20" width="11" height="11" fill='#c68f27'/><rect x="40" y="20" width="11" height="11" fill='#c68f27'/><rect x="50" y="20" width="11" height="11" fill='gray'/><rect x="60" y="20" width="11" height="11" fill='lightgray'/><rect x="70" y="20" width="11" height="11" fill='#c68f27'/><rect x="80" y="20" width="11" height="11" fill='#c68f27'/><rect x="90" y="20" width="11" height="11" fill='gray'/><rect x="100" y="20" width="11" height="11" fill='lightgray'/><rect x="110" y="20" width="11" height="11" fill='none'/><rect x="0" y="30" width="11" height="11" fill='yellow'/><rect x="10" y="30" width="11" height="11" fill='#c68f27'/><rect x="20" y="30" width="11" height="11" fill='#c68f27'/><rect x="30" y="30" width="11" height="11" fill='gray'/><rect x="40" y="30" width="11" height="11" fill='lightgray'/><rect x="50" y="30" width="11" height="11" fill='#c68f27'/><rect x="60" y="30" width="11" height="11" fill='#c68f27'/><rect x="70" y="30" width="11" height="11" fill='gray'/><rect x="80" y="30" width="11" height="11" fill='lightgray'/><rect x="90" y="30" width="11" height="11" fill='#c68f27'/><rect x="100" y="30" width="11" height="11" fill='#c68f27'/><rect x="110" y="30" width="11" height="11" fill='brown'/><rect x="0" y="40" width="11" height="11" fill='brown'/><rect x="10" y="40" width="11" height="11" fill='brown'/><rect x="20" y="40" width="11" height="11" fill='black'/><rect x="30" y="40" width="11" height="11" fill='#c68f27'/><rect x="40" y="40" width="11" height="11" fill='#c68f27'/><rect x="50" y="40" width="11" height="11" fill='gray'/><rect x="60" y="40" width="11" height="11" fill='lightgray'/><rect x="70" y="40" width="11" height="11" fill='#c68f27'/><rect x="80" y="40" width="11" height="11" fill='#c68f27'/><rect x="90" y="40" width="11" height="11" fill='brown'/><rect x="100" y="40" width="11" height="11" fill='brown'/><rect x="110" y="40" width="11" height="11" fill='black'/><rect x="0" y="50" width="11" height="11" fill='black'/><rect x="10" y="50" width="11" height="11" fill='lightgray'/><rect x="20" y="50" width="11" height="11" fill='#c68f27'/><rect x="30" y="50" width="11" height="11" fill='brown'/><rect x="40" y="50" width="11" height="11" fill='black'/><rect x="50" y="50" width="11" height="11" fill='#c68f27'/><rect x="60" y="50" width="11" height="11" fill='#c68f27'/><rect x="70" y="50" width="11" height="11" fill='brown'/><rect x="80" y="50" width="11" height="11" fill='brown'/><rect x="90" y="50" width="11" height="11" fill='gray'/><rect x="100" y="50" width="11" height="11" fill='brown'/><rect x="110" y="50" width="11" height="11" fill='brown'/><rect x="0" y="60" width="11" height="11" fill='black'/><rect x="10" y="60" width="11" height="11" fill='#c68f27'/><rect x="20" y="60" width="11" height="11" fill='lightgray'/><rect x="30" y="60" width="11" height="11" fill='#c68f27'/><rect x="40" y="60" width="11" height="11" fill='lightgray'/><rect x="50" y="60" width="11" height="11" fill='brown'/><rect x="60" y="60" width="11" height="11" fill='black'/><rect x="70" y="60" width="11" height="11" fill='brown'/><rect x="80" y="60" width="11" height="11" fill='gray'/><rect x="90" y="60" width="11" height="11" fill='brown'/><rect x="100" y="60" width="11" height="11" fill='brown'/><rect x="110" y="60" width="11" height="11" fill='black'/><rect x="0" y="70" width="11" height="11" fill='black'/><rect x="10" y="70" width="11" height="11" fill='lightgray'/><rect x="20" y="70" width="11" height="11" fill='#c68f27'/><rect x="30" y="70" width="11" height="11" fill='lightgray'/><rect x="40" y="70" width="11" height="11" fill='#c68f27'/><rect x="50" y="70" width="11" height="11" fill='lightgray'/><rect x="60" y="70" width="11" height="11" fill='brown'/><rect x="70" y="70" width="11" height="11" fill='gray'/><rect x="80" y="70" width="11" height="11" fill='brown'/><rect x="90" y="70" width="11" height="11" fill='gray'/><rect x="100" y="70" width="11" height="11" fill='brown'/><rect x="110" y="70" width="11" height="11" fill='brown'/><rect x="0" y="80" width="11" height="11" fill='black'/><rect x="10" y="80" width="11" height="11" fill='#c68f27'/><rect x="20" y="80" width="11" height="11" fill='lightgray'/><rect x="30" y="80" width="11" height="11" fill='#c68f27'/><rect x="40" y="80" width="11" height="11" fill='lightgray'/><rect x="50" y="80" width="11" height="11" fill='#c68f27'/><rect x="60" y="80" width="11" height="11" fill='brown'/><rect x="70" y="80" width="11" height="11" fill='brown'/><rect x="80" y="80" width="11" height="11" fill='gray'/><rect x="90" y="80" width="11" height="11" fill='brown'/><rect x="100" y="80" width="11" height="11" fill='brown'/><rect x="110" y="80" width="11" height="11" fill='black'/><rect x="0" y="90" width="11" height="11" fill='none'/><rect x="10" y="90" width="11" height="11" fill='black'/><rect x="20" y="90" width="11" height="11" fill='brown'/><rect x="30" y="90" width="11" height="11" fill='lightgray'/><rect x="40" y="90" width="11" height="11" fill='#c68f27'/><rect x="50" y="90" width="11" height="11" fill='lightgray'/><rect x="60" y="90" width="11" height="11" fill='brown'/><rect x="70" y="90" width="11" height="11" fill='gray'/><rect x="80" y="90" width="11" height="11" fill='brown'/><rect x="90" y="90" width="11" height="11" fill='black'/><rect x="100" y="90" width="11" height="11" fill='black'/><rect x="110" y="90" width="11" height="11" fill='none'/><rect x="0" y="100" width="11" height="11" fill='none'/><rect x="10" y="100" width="11" height="11" fill='none'/><rect x="20" y="100" width="11" height="11" fill='none'/><rect x="30" y="100" width="11" height="11" fill='black'/><rect x="40" y="100" width="11" height="11" fill='brown'/><rect x="50" y="100" width="11" height="11" fill='#c68f27'/><rect x="60" y="100" width="11" height="11" fill='brown'/><rect x="70" y="100" width="11" height="11" fill='black'/><rect x="80" y="100" width="11" height="11" fill='black'/><rect x="90" y="100" width="11" height="11" fill='none'/><rect x="100" y="100" width="11" height="11" fill='none'/><rect x="110" y="100" width="11" height="11" fill='none'/><rect x="0" y="110" width="11" height="11" fill='none'/><rect x="10" y="110" width="11" height="11" fill='none'/><rect x="20" y="110" width="11" height="11" fill='none'/><rect x="30" y="110" width="11" height="11" fill='none'/><rect x="40" y="110" width="11" height="11" fill='none'/><rect x="50" y="110" width="11" height="11" fill='black'/><rect x="60" y="110" width="11" height="11" fill='black'/><rect x="70" y="110" width="11" height="11" fill='none'/><rect x="80" y="110" width="11" height="11" fill='none'/><rect x="90" y="110" width="11" height="11" fill='none'/><rect x="100" y="110" width="11" height="11" fill='none'/><rect x="110" y="110" width="11" height="11" fill='none'/></svg>