<svg width="80" height="80" viewBox="0 0 80 80" fill="none" xmlns="http://www.w3.org/2000/svg">

<rect width="10" height="10" fill="#AFAEAE"/>
<rect x="10" width="10" height="10" fill="white"/>
<rect x="20" width="10" height="10" fill="#AFAEAE"/>
<rect x="30" width="10" height="10" fill="#918E8E"/>
<rect x="40" width="10" height="10" fill="white"/>
<rect x="50" width="10" height="10" fill="#AFAEAE"/>
<rect x="60" width="10" height="10" fill="#DADADA"/>
<rect x="70" width="10" height="10" fill="white"/>


<rect y="10" width="10" height="10" fill="#AFAEAE"/>
<rect x="10" y="10" width="10" height="10" fill="white"/>
<rect x="20" y="10" width="10" height="10" fill="#AFAEAE"/>
<rect x="30" y="10" width="10" height="10" fill="#918E8E"/>
<rect x="40" y="10" width="10" height="10" fill="white"/>
<rect x="50" y="10" width="10" height="10" fill="#AFAEAE"/>
<rect x="60" y="10" width="10" height="10" fill="#DADADA"/>
<rect x="70" y="10" width="10" height="10" fill="white"/>

<rect y="20" width="10" height="10" fill="#AFAEAE"/>
<rect x="10" y="20" width="10" height="10" fill="white"/>
<rect x="20" y="20" width="10" height="10" fill="#AFAEAE"/>
<rect x="30" y="20" width="10" height="10" fill="#918E8E"/>
<rect x="40" y="20" width="10" height="10" fill="white"/>
<rect x="50" y="20" width="10" height="10" fill="#AFAEAE"/>
<rect x="60" y="20" width="10" height="10" fill="#DADADA"/>
<rect x="70" y="20" width="10" height="10" fill="white"/>

<rect y="30" width="10" height="10" fill="#AFAEAE"/>
<rect x="10" y="30" width="10" height="10" fill="white"/>
<rect x="20" y="30" width="10" height="10" fill="#AFAEAE"/>
<rect x="30" y="30" width="10" height="10" fill="#918E8E"/>
<rect x="40" y="30" width="10" height="10" fill="white"/>
<rect x="50" y="30" width="10" height="10" fill="#AFAEAE"/>
<rect x="60" y="30" width="10" height="10" fill="#DADADA"/>
<rect x="70" y="30" width="10" height="10" fill="white"/>

<rect y="40" width="10" height="10" fill="#AFAEAE"/>
<rect x="10" y="40" width="10" height="10" fill="white"/>
<rect x="20" y="40" width="10" height="10" fill="#AFAEAE"/>
<rect x="30" y="40" width="10" height="10" fill="#918E8E"/>
<rect x="40" y="40" width="10" height="10" fill="white"/>
<rect x="50" y="40" width="10" height="10" fill="#AFAEAE"/>
<rect x="60" y="40" width="10" height="10" fill="#DADADA"/>
<rect x="70" y="40" width="10" height="10" fill="white"/>

<rect y="50" width="10" height="10" fill="#AFAEAE"/>
<rect x="10" y="50" width="10" height="10" fill="white"/>
<rect x="20" y="50" width="10" height="10" fill="#AFAEAE"/>
<rect x="30" y="50" width="10" height="10" fill="#918E8E"/>
<rect x="40" y="50" width="10" height="10" fill="white"/>
<rect x="50" y="50" width="10" height="10" fill="#AFAEAE"/>
<rect x="60" y="50" width="10" height="10" fill="#DADADA"/>
<rect x="70" y="50" width="10" height="10" fill="white"/>

<rect y="60" width="10" height="10" fill="#AFAEAE"/>
<rect x="10" y="60" width="10" height="10" fill="white"/>
<rect x="20" y="60" width="10" height="10" fill="#AFAEAE"/>
<rect x="30" y="60" width="10" height="10" fill="#918E8E"/>
<rect x="40" y="60" width="10" height="10" fill="white"/>
<rect x="50" y="60" width="10" height="10" fill="#AFAEAE"/>
<rect x="60" y="60" width="10" height="10" fill="#DADADA"/>
<rect x="70" y="60" width="10" height="10" fill="white"/>

<rect y="70" width="10" height="10" fill="#AFAEAE"/>
<rect x="10" y="70" width="10" height="10" fill="white"/>
<rect x="20" y="70" width="10" height="10" fill="#AFAEAE"/>
<rect x="30" y="70" width="10" height="10" fill="#918E8E"/>
<rect x="40" y="70" width="10" height="10" fill="white"/>
<rect x="50" y="70" width="10" height="10" fill="#AFAEAE"/>
<rect x="60" y="70" width="10" height="10" fill="#DADADA"/>
<rect x="70" y="70" width="10" height="10" fill="white"/>

</svg>
