<svg width="80" height="80" viewBox="0 0 80 80" fill="none" xmlns="http://www.w3.org/2000/svg">
<rect width="11" height="11" fill="#75A474"/>
<rect x="10" width="11" height="11" fill="#8DB46E"/>
<rect x="20" width="11" height="11" fill="#81C46A"/>
<rect x="30" width="11" height="11" fill="#65B06D"/>
<rect x="40" width="11" height="11" fill="#7ABA70"/>
<rect x="50" width="11" height="11" fill="#8DB46E"/>
<rect x="60" width="11" height="11" fill="#81C46A"/>
<rect x="70" width="11" height="11" fill="#81C36A"/>
<rect y="10" width="11" height="11" fill="#8DB46E"/>
<rect x="10" y="10" width="11" height="11" fill="#8DB46E"/>
<rect x="20" y="10" width="11" height="11" fill="#81C46A"/>
<rect x="30" y="10" width="11" height="11" fill="#81C46A"/>
<rect x="40" y="10" width="11" height="11" fill="#6ADA58"/>
<rect x="50" y="10" width="11" height="11" fill="#6ADA58"/>
<rect x="60" y="10" width="11" height="11" fill="#81C36A"/>
<rect x="70" y="10" width="11" height="11" fill="#81C36A"/>
<rect y="20" width="11" height="11" fill="#6ADA58"/>
<rect x="10" y="20" width="11" height="11" fill="#81C46A"/>
<rect x="20" y="20" width="11" height="11" fill="#7ABA70"/>
<rect x="30" y="20" width="11" height="11" fill="#7ABA70"/>
<rect x="40" y="20" width="11" height="11" fill="#8DB46E"/>
<rect x="50" y="20" width="11" height="11" fill="#9BBD8F"/>
<rect x="60" y="20" width="11" height="11" fill="#9BBD8F"/>
<rect x="70" y="20" width="11" height="11" fill="#8DB46E"/>
<rect y="30" width="11" height="11" fill="#81C46A"/>
<rect x="10" y="30" width="11" height="11" fill="#81C46A"/>
<rect x="20" y="30" width="11" height="11" fill="#6ADA58"/>
<rect x="30" y="30" width="11" height="11" fill="#CCCA91"/>
<rect x="40" y="30" width="11" height="11" fill="#81C46A"/>
<rect x="50" y="30" width="11" height="11" fill="#8DB46E"/>
<rect x="60" y="30" width="11" height="11" fill="#9BBD8F"/>
<rect x="70" y="30" width="11" height="11" fill="#9BBD8F"/>
<rect y="40" width="11" height="11" fill="#6ADA58"/>
<rect x="10" y="40" width="11" height="11" fill="#6ADA58"/>
<rect x="20" y="40" width="11" height="11" fill="#CCCA91"/>
<rect x="30" y="40" width="11" height="11" fill="#F5F94A"/>
<rect x="40" y="40" width="11" height="11" fill="#CCCA91"/>
<rect x="50" y="40" width="11" height="11" fill="#81C46A"/>
<rect x="60" y="40" width="11" height="11" fill="#8DB46E"/>
<rect x="70" y="40" width="11" height="11" fill="#81C46A"/>
<rect y="50" width="11" height="11" fill="#8DB46E"/>
<rect x="10" y="50" width="11" height="11" fill="#7ABA70"/>
<rect x="20" y="50" width="11" height="11" fill="#8DB46E"/>
<rect x="30" y="50" width="11" height="11" fill="#CCCA91"/>
<rect x="40" y="50" width="11" height="11" fill="#81C46A"/>
<rect x="50" y="50" width="11" height="11" fill="#75A474"/>
<rect x="60" y="50" width="11" height="11" fill="#8DB46E"/>
<rect x="70" y="50" width="11" height="11" fill="#81C46A"/>
<rect y="60" width="11" height="11" fill="#81C46A"/>
<rect x="10" y="60" width="11" height="11" fill="#8DB46E"/>
<rect x="20" y="60" width="11" height="11" fill="#65B06D"/>
<rect x="30" y="60" width="11" height="11" fill="#81C46A"/>
<rect x="40" y="60" width="11" height="11" fill="#9BBD8F"/>
<rect x="50" y="60" width="11" height="11" fill="#6ADA58"/>
<rect x="60" y="60" width="11" height="11" fill="#6ADA58"/>
<rect x="70" y="60" width="11" height="11" fill="#6ADA58"/>
<rect y="70" width="11" height="11" fill="#7ABA70"/>
<rect x="10" y="70" width="11" height="11" fill="#7ABA70"/>
<rect x="20" y="70" width="11" height="11" fill="#8DB46E"/>
<rect x="30" y="70" width="11" height="11" fill="#9BBD8F"/>
<rect x="40" y="70" width="11" height="11" fill="#9BBD8F"/>
<rect x="50" y="70" width="11" height="11" fill="#7ABA70"/>
<rect x="60" y="70" width="11" height="11" fill="#8DB46E"/>
<rect x="70" y="70" width="11" height="11" fill="#8DB46E"/>
</svg>
