<svg width="160" height="160" viewBox="0 0 160 160" fill="none" xmlns="http://www.w3.org/2000/svg">

<rect x="120" width="10" height="11" fill="darkgreen"/>

<rect x="110" y="10" width="11" height="11" fill="darkgreen"/>
<rect x="120" y="10" width="11" height="11" fill="green"/>
<rect x="130" y="10" width="11" height="11" fill="white"/>
<rect x="140" y="10" width="10" height="11" fill="darkgreen"/>

<rect x="110" y="20" width="11" height="11" fill="darkgreen"/>
<rect x="120" y="20" width="11" height="11" fill="darkgreen"/>
<rect x="130" y="20" width="11" height="11" fill="green"/>
<rect x="140" y="20" width="11" height="11" fill="darkgreen"/>
<rect x="150" y="20" width="11" height="11" fill="black"/>

<rect x="70" y="30" width="11" height="11" fill="darkgreen"/>
<rect x="80" y="30" width="11" height="11" fill="darkgreen"/>
<rect x="90" y="30" width="11" height="11" fill="darkgreen"/>
<rect x="100" y="30" width="11" height="11" fill="darkgreen"/>
<rect x="110" y="30" width="11" height="11" fill="white"/>
<rect x="120" y="30" width="11" height="11" fill="green"/>
<rect x="130" y="30" width="11" height="11" fill="darkgreen"/>
<rect x="140" y="30" width="11" height="11" fill="green"/>
<rect x="150" y="30" width="11" height="11" fill="black"/>

<rect x="60" y="40" width="11" height="11" fill="darkgreen"/>
<rect x="70" y="40" width="11" height="11" fill="green"/>
<rect x="80" y="40" width="11" height="11" fill="green"/>
<rect x="90" y="40" width="11" height="11" fill="green"/>
<rect x="100" y="40" width="11" height="11" fill="white"/>
<rect x="110" y="40" width="11" height="11" fill="green"/>
<rect x="120" y="40" width="11" height="11" fill="green"/>
<rect x="130" y="40" width="11" height="11" fill="darkgreen"/>
<rect x="140" y="40" width="11" height="11" fill="black"/>


<rect x="50" y="50" width="11" height="11" fill="black"/>
<rect x="60" y="50" width="11" height="11" fill="green"/>
<rect x="70" y="50" width="11" height="11" fill="white"/>
<rect x="80" y="50" width="11" height="11" fill="white"/>
<rect x="90" y="50" width="11" height="11" fill="green"/>
<rect x="100" y="50" width="11" height="11" fill="green"/>
<rect x="110" y="50" width="11" height="11" fill="green"/>
<rect x="120" y="50" width="10" height="11" fill="black"/>

<rect x="40" y="60" width="11" height="11" fill="black"/>
<rect x="50" y="60" width="11" height="11" fill="grey"/>
<rect x="60" y="60" width="11" height="11" fill="pink"/>
<rect x="70" y="60" width="11" height="11" fill="grey"/>
<rect x="80" y="60" width="11" height="11" fill="green"/>
<rect x="90" y="60" width="11" height="11" fill="green"/>
<rect x="100" y="60" width="11" height="11" fill="green"/>
<rect x="110" y="60" width="11" height="11" fill="darkgreen"/>
<rect x="120" y="60" width="10" height="11" fill="black"/>


<rect x="30" y="70" width="11" height="11" fill="black"/>
<rect x="40" y="70" width="11" height="11" fill="grey"/>
<rect x="50" y="70" width="11" height="11" fill="white"/>
<rect x="60" y="70" width="11" height="11" fill="red"/>
<rect x="70" y="70" width="11" height="11" fill="grey"/>
<rect x="80" y="70" width="11" height="11" fill="grey"/>
<rect x="90" y="70" width="11" height="11" fill="green"/>
<rect x="100" y="70" width="11" height="11" fill="darkgreen"/>
<rect x="110" y="70" width="11" height="11" fill="darkgreen"/>
<rect x="120" y="70" width="10" height="11" fill="black"/>


<rect x="20" y="80" width="11" height="11" fill="black"/>
<rect x="30" y="80" width="11" height="11" fill="grey"/>
<rect x="40" y="80" width="11" height="11" fill="white"/>
<rect x="50" y="80" width="11" height="11" fill="grey"/>
<rect x="60" y="80" width="11" height="11" fill="red"/>
<rect x="70" y="80" width="11" height="11" fill="grey"/>
<rect x="80" y="80" width="11" height="11" fill="grey"/>
<rect x="90" y="80" width="11" height="11" fill="grey"/>
<rect x="100" y="80" width="11" height="11" fill="black"/>
<rect x="110" y="80" width="11" height="11" fill="darkgreen"/>
<rect x="120" y="80" width="10" height="11" fill="black"/>

<rect x="10" y="90" width="11" height="11" fill="darkgreen"/>
<rect x="20" y="90" width="11" height="11" fill="green"/>
<rect x="30" y="90" width="11" height="11" fill="white"/>
<rect x="40" y="90" width="11" height="11" fill="grey"/>
<rect x="50" y="90" width="11" height="11" fill="grey"/>
<rect x="60" y="90" width="11" height="11" fill="red"/>
<rect x="70" y="90" width="11" height="11" fill="red"/>
<rect x="80" y="90" width="11" height="11" fill="red"/>
<rect x="90" y="90" width="11" height="11" fill="brown"/>
<rect x="100" y="90" width="11" height="11" fill="grey"/>
<rect x="110" y="90" width="10" height="11" fill="black"/>

<rect y="100" width="11" height="11" fill="darkgreen"/>
<rect x="10" y="100" width="11" height="11" fill="green"/>
<rect x="20" y="100" width="11" height="11" fill="white"/>
<rect x="30" y="100" width="11" height="11" fill="green"/>
<rect x="40" y="100" width="11" height="11" fill="green"/>
<rect x="50" y="100" width="11" height="11" fill="grey"/>
<rect x="60" y="100" width="11" height="11" fill="grey"/>
<rect x="70" y="100" width="11" height="11" fill="grey"/>
<rect x="80" y="100" width="11" height="11" fill="black"/>
<rect x="90" y="100" width="11" height="11" fill="grey"/>
<rect x="100" y="100" width="10" height="11" fill="black"/>


<rect y="110" width="11" height="11" fill="darkgreen"/>
<rect x="10" y="110" width="11" height="11" fill="green"/>
<rect x="20" y="110" width="11" height="11" fill="white"/>
<rect x="30" y="110" width="11" height="11" fill="green"/>
<rect x="40" y="110" width="11" height="11" fill="green"/>
<rect x="50" y="110" width="11" height="11" fill="green"/>
<rect x="60" y="110" width="11" height="11" fill="grey"/>
<rect x="70" y="110" width="11" height="11" fill="black"/>
<rect x="80" y="110" width="11" height="11" fill="grey"/>
<rect x="90" y="110" width="10" height="11" fill="black"/>

<rect y="120" width="11" height="11" fill="darkgreen"/>
<rect x="10" y="120" width="11" height="11" fill="green"/>
<rect x="20" y="120" width="11" height="11" fill="green"/>
<rect x="30" y="120" width="11" height="11" fill="green"/>
<rect x="40" y="120" width="11" height="11" fill="green"/>
<rect x="50" y="120" width="11" height="11" fill="green"/>
<rect x="60" y="120" width="11" height="11" fill="darkgreen"/>
<rect x="70" y="120" width="11" height="11" fill="grey"/>
<rect x="80" y="120" width="11" height="11" fill="black"/>


<rect x="10" y="130" width="11" height="11" fill="darkgreen"/>
<rect x="20" y="130" width="11" height="11" fill="green"/>
<rect x="30" y="130" width="11" height="11" fill="green"/>
<rect x="40" y="130" width="11" height="11" fill="green"/>
<rect x="50" y="130" width="11" height="11" fill="darkgreen"/>
<rect x="60" y="130" width="11" height="11" fill="green"/>
<rect x="70" y="130" width="10" height="11" fill="darkgreen"/>

<rect x="20" y="140" width="11" height="11" fill="darkgreen"/>
<rect x="30" y="140" width="11" height="11" fill="green"/>
<rect x="40" y="140" width="11" height="11" fill="darkgreen"/>
<rect x="50" y="140" width="11" height="11" fill="green"/>
<rect x="60" y="140" width="10" height="11" fill="darkgreen"/>

<rect x="30" y="150" width="11" height="11" fill="darkgreen"/>
<rect x="40" y="150" width="11" height="11" fill="darkgreen"/>
<rect x="50" y="150" width="11" height="11" fill="darkgreen"/>

</svg>
