<svg width="80" height="80" viewBox="0 0 80 80" fill="none" xmlns="http://www.w3.org/2000/svg">


<rect x="30" width="11" height="10" fill="red"/>
<rect x="40" width="10" height="10" fill="red"/>


<rect x="20" y="10" width="11" height="10" fill="red"/>
<rect x="30" y="10" width="11" height="10" fill="white"/>
<rect x="40" y="10" width="11" height="10" fill="red"/>
<rect x="50" y="10" width="10" height="10" fill="brown"/>



<rect x="10" y="20" width="10" height="10" fill="red"/>
<rect x="20" y="20" width="10" height="10" fill="white"/>
<rect x="30" y="20" width="10" height="10" fill="red"/>
<rect x="40" y="20" width="10" height="10" fill="red"/>
<rect x="50" y="20" width="10" height="10" fill="red"/>
<rect x="60" y="20" width="10" height="11" fill="brown"/>


<rect x="10" y="30" width="11" height="10" fill="red"/>
<rect x="20" y="30" width="11" height="10" fill="pink"/>
<rect x="30" y="30" width="11" height="10" fill="red"/>
<rect x="40" y="30" width="11" height="10" fill="red"/>
<rect x="50" y="30" width="11" height="10" fill="brown"/>
<rect x="60" y="30" width="10" height="11" fill="brown"/>

<rect x="10" y="40" width="11" height="11" fill="red"/>
<rect x="20" y="40" width="11" height="11" fill="pink"/>
<rect x="30" y="40" width="11" height="11" fill="red"/>
<rect x="40" y="40" width="11" height="11" fill="red"/>
<rect x="50" y="40" width="11" height="11" fill="red"/>
<rect x="60" y="40" width="10" height="11" fill="brown"/>

<rect x="10" y="50" width="11" height="11" fill="red"/>
<rect x="20" y="50" width="11" height="11" fill="red"/>
<rect x="30" y="50" width="11" height="11" fill="red"/>
<rect x="40" y="50" width="11" height="11" fill="red"/>
<rect x="50" y="50" width="11" height="11" fill="brown"/>
<rect x="60" y="50" width="10" height="11" fill="brown"/>

<rect y="60" width="10" height="10" fill="yellow"/>
<rect x="10" y="60" width="11" height="11" fill="#808000"/>
<rect x="20" y="60" width="11" height="11" fill="yellow"/>
<rect x="30" y="60" width="11" height="11" fill="#808000"/>
<rect x="40" y="60" width="11" height="11" fill="yellow"/>
<rect x="50" y="60" width="11" height="11" fill="#808000"/>
<rect x="60" y="60" width="11" height="11" fill="#808000"/>
<rect x="70" y="60" width="10" height="10" fill="brown"/>


<rect x="10" y="70" width="11" height="10" fill="#808000"/>
<rect x="20" y="70" width="11" height="10" fill="#808000"/>
<rect x="30" y="70" width="11" height="10" fill="#808000"/>
<rect x="40" y="70" width="11" height="10" fill="#808000"/>
<rect x="50" y="70" width="11" height="10" fill="#808000"/>
<rect x="60" y="70" width="10" height="10" fill="brown"/>


</svg>
