<svg width="260" height="520" viewBox="0 0 260 520" fill="none" xmlns="http://www.w3.org/2000/svg">
<path d="M117 357C121.151 357 124.66 355 128.556 355C132.084 355 137.351 354.957 140.556 353.5C144.34 351.78 148.549 350.756 152.5 349C156.112 347.395 158.728 343.479 161.556 341.056C163.685 339.23 165.662 336.497 167.222 334C169.846 329.802 174.44 326.372 178 323C180.53 320.603 184.364 316.853 187.444 315.222C190.931 313.376 192.694 309.653 196 308" stroke="#165FED" stroke-opacity="0.8" stroke-width="5" stroke-linecap="round"/>
<path d="M129 53C136.848 53 144.748 53.3325 152.444 51.5C157.631 50.2651 158.777 51.38 152 49.5556C149.081 48.7698 145.993 49 143 49C137.772 49 153.334 47.2487 158.556 47C167.362 46.5806 151.296 42.7652 149 42" stroke="#165FED" stroke-opacity="0.8" stroke-width="5" stroke-linecap="round"/>
<path d="M159 34C158.366 34 160.265 34.112 160.889 34.2222C165.613 35.0559 169.266 37.7511 173.444 39.8889C175.847 41.1179 178.618 42.612 181.333 43C183.8 43.3523 176.454 41.985 174 41.5556C171.701 41.1532 169.188 41.4431 166.944 40.9444C164.771 40.4615 171.329 40 173.556 40C177.881 40 179.6 41.8666 183 43" stroke="#165FED" stroke-opacity="0.8" stroke-width="5" stroke-linecap="round"/>
<path d="M197 58C197 56.7912 199.341 60.56 200.111 61C203.222 62.7774 205.055 66.3671 207.5 69C212.491 74.3745 214.981 82.2694 217.556 88.8889C224.816 107.558 225 129.062 225 149" stroke="#165FED" stroke-opacity="0.8" stroke-width="5" stroke-linecap="round"/>
<path d="M229 124C229 128.889 228.499 152 223 152" stroke="#165FED" stroke-opacity="0.8" stroke-width="5" stroke-linecap="round"/>
<path d="M226 144C225.67 151.257 223.969 158.717 222.944 165.889C222.76 167.179 220.293 170.293 220 170" stroke="#165FED" stroke-opacity="0.8" stroke-width="5" stroke-linecap="round"/>
<path d="M223 169C223.184 165.694 224.785 162.821 225.056 159.444C225.413 154.98 226.614 149.872 227.5 145.444C229.061 137.641 229 129.718 229 121.778C229 113.735 228.939 105.95 228.056 98C227.276 90.981 225 83.994 225 77" stroke="#165FED" stroke-opacity="0.8" stroke-width="5" stroke-linecap="round"/>
<path d="M227 209C227 212.445 223 216.154 223 220.5C223 221.349 224.886 225.394 225.444 225.778C227.964 227.51 227.613 228.226 229 231" stroke="#165FED" stroke-opacity="0.8" stroke-width="5" stroke-linecap="round"/>
<path d="M231 200C231.637 197.131 239.869 192.291 241.056 196.444C241.322 197.379 242.687 197.342 242.944 198.5C243.238 199.821 243 201.436 243 202.778C243 207.234 242.647 209.882 241 214" stroke="#165FED" stroke-opacity="0.8" stroke-width="5" stroke-linecap="round"/>
<path d="M195 347C195.154 348.384 196.227 348.836 196.778 350C197.571 351.675 196.987 354.154 197.5 356C198.315 358.935 198.502 362.206 199.5 365C201.656 371.037 203.048 377.134 205.222 383.222C206.025 385.47 213.169 394.491 212.944 395.5C211.305 402.876 205.949 410.021 204.944 417.556C204.115 423.776 201.349 429.722 201 436C200.609 443.039 196.295 450.736 195.056 457.556C194.491 460.658 193.694 463.043 191.333 465.222C189.826 466.614 187.727 467.39 186 468.5C183.477 470.122 182.486 473.136 180 475C172.829 480.378 168.17 490.105 164.222 498C161.604 503.237 161.52 512.24 156 515" stroke="#165FED" stroke-opacity="0.8" stroke-width="5" stroke-linecap="round"/>
<path d="M183 511C191.654 506.418 203.475 500.686 206.778 490.778C207.696 488.023 208.703 482.852 210.778 480.778C212.36 479.195 219.713 478.206 222 479.222C226.212 481.094 231.563 481.507 236 482C240.02 482.447 244.63 484.795 248 486.778C252.908 489.665 255.509 496.983 253 502" stroke="#165FED" stroke-opacity="0.8" stroke-width="5" stroke-linecap="round"/>
<path d="M197 346C197.941 342.237 207.906 349.641 209 351.556C210.165 353.594 212.904 355.638 213 358.222C213.103 360.991 213 363.784 213 366.556C213 376.235 211.982 388.697 207 397" stroke="#165FED" stroke-opacity="0.8" stroke-width="5" stroke-linecap="round"/>
<path d="M159 164C159 168.595 162.265 173.721 167 174C174.216 174.424 175 169.96 175 164" stroke="#165FED" stroke-opacity="0.8" stroke-width="5" stroke-linecap="round"/>
<path d="M70 171C76.0165 177.769 83 170.976 83 164" stroke="#165FED" stroke-opacity="0.8" stroke-width="5" stroke-linecap="round"/>
<path d="M121 238C121.081 238.569 127.095 235.33 128.444 234.944C129.799 234.557 129.868 232.093 132 233.222C133.525 234.03 133 236.582 133 238" stroke="#165FED" stroke-opacity="0.8" stroke-width="5" stroke-linecap="round"/>
<path d="M99 235C106.443 231.391 109.619 232.858 112 240" stroke="#165FED" stroke-opacity="0.8" stroke-width="5" stroke-linecap="round"/>
<path d="M141 239C149.841 238.018 144.76 223.76 141 220" stroke="#165FED" stroke-opacity="0.8" stroke-width="5" stroke-linecap="round"/>
<path d="M155 261C158.491 264.927 160 269.723 160 275" stroke="#165FED" stroke-opacity="0.8" stroke-width="5" stroke-linecap="round"/>
<path d="M137 158C144.668 153.687 146.748 145.084 156 142" stroke="#165FED" stroke-opacity="0.8" stroke-width="5" stroke-linecap="round"/>
<path d="M147 154C147.932 149.807 161.671 145 166 145" stroke="#165FED" stroke-opacity="0.8" stroke-width="5" stroke-linecap="round"/>
<path d="M167 146C172.804 145.472 178.081 143 184 143" stroke="#165FED" stroke-opacity="0.8" stroke-width="5" stroke-linecap="round"/>
<path d="M186 146H197" stroke="#165FED" stroke-opacity="0.8" stroke-width="5" stroke-linecap="round"/>
<path d="M196 149C198.545 150.566 202.089 150 205 150" stroke="#165FED" stroke-opacity="0.8" stroke-width="5" stroke-linecap="round"/>
<path d="M49 148C50.5944 144.413 61.7604 146 65 146" stroke="#165FED" stroke-opacity="0.8" stroke-width="5" stroke-linecap="round"/>
<path d="M73 145C74.7387 146.546 77.8223 147.274 80 148" stroke="#165FED" stroke-opacity="0.8" stroke-width="5" stroke-linecap="round"/>
<path d="M89 148C89.3777 149.7 93.594 153.063 95 154" stroke="#165FED" stroke-opacity="0.8" stroke-width="5" stroke-linecap="round"/>
<path d="M97 158C99.7203 158.302 101 161.711 101 164" stroke="#165FED" stroke-opacity="0.8" stroke-width="5" stroke-linecap="round"/>
<path d="M193 276C212.447 276 219 253.688 219 238" stroke="#165FED" stroke-opacity="0.8" stroke-width="5" stroke-linecap="round"/>
<path d="M195 308C197.44 307.729 200.58 301.722 202 299.778C204.443 296.435 205.965 293.626 207.778 290C211.565 282.425 212 272.258 212 264" stroke="#165FED" stroke-opacity="0.8" stroke-width="5" stroke-linecap="round"/>
<path d="M167 182C169.728 179.575 175.342 181.3 178.556 179.778C182.357 177.977 186.295 177.47 190 175" stroke="#165FED" stroke-opacity="0.8" stroke-width="5" stroke-linecap="round"/>
<path d="M77 181C80.3377 181 83.7881 182.243 86.5556 180.778C90.392 178.747 94.3819 177.714 98 175" stroke="#165FED" stroke-opacity="0.8" stroke-width="5" stroke-linecap="round"/>
<path d="M13 234C13 229.694 11.9983 226.758 12.9444 222.5C13.9935 217.779 20.5338 212.932 23 208" stroke="#165FED" stroke-opacity="0.8" stroke-width="5" stroke-linecap="round"/>
<path d="M3 207C3 200.383 0.313926 188.386 10 190" stroke="#165FED" stroke-opacity="0.8" stroke-width="5" stroke-linecap="round"/>
<path d="M119 405C128.705 405.971 131.066 403.223 136 395" stroke="#165FED" stroke-opacity="0.8" stroke-width="5" stroke-linecap="round"/>
<path d="M167 470C167 463.893 169.781 457.392 172 451.778C175.544 442.813 180.363 435.346 185 427" stroke="#165FED" stroke-opacity="0.8" stroke-width="5" stroke-linecap="round"/>
<path d="M162 395C168.314 393.421 167 372.973 167 368.5C167 365.015 164.864 361.304 165 357.778C165.253 351.194 168.937 344.188 171 338" stroke="#165FED" stroke-opacity="0.8" stroke-width="5" stroke-linecap="round"/>
<path d="M114 310C109.852 309.309 121.797 306.636 125.944 305.944C130.236 305.229 137.669 298.775 141 296" stroke="#165FED" stroke-opacity="0.8" stroke-width="5" stroke-linecap="round"/>
<path d="M72 19C77.3674 14.7827 85.6013 12.044 92 9.55556C95.3658 8.24664 99.4007 5.10586 103 5C107.333 4.87256 111.088 3 115.444 3C119.796 3 124.148 3 128.5 3C137.101 3 145.147 6.43589 153.444 7.94444C160.244 9.18081 167.163 10.1089 173 14" stroke="#165FED" stroke-opacity="0.8" stroke-width="5" stroke-linecap="round"/>
<path d="M190 27C201.449 27 208.047 44.0631 214 52" stroke="#165FED" stroke-opacity="0.8" stroke-width="5" stroke-linecap="round"/>
<path d="M53 49C57.8675 44.4189 64.7841 41.9949 70.7778 39.4444C76.1935 37.1399 81.0604 34 87 34" stroke="#165FED" stroke-opacity="0.8" stroke-width="5" stroke-linecap="round"/>
<path d="M78 47C83.9886 42.5086 93.8332 39.3889 101 37" stroke="#165FED" stroke-opacity="0.8" stroke-width="5" stroke-linecap="round"/>
<path d="M99 43C98.1385 44.1487 107.601 42.0677 109 43" stroke="#165FED" stroke-opacity="0.8" stroke-width="5" stroke-linecap="round"/>
<path d="M16 111C16.4661 116.128 18 120.836 18 126C18 130.471 17.8845 134.661 18.7778 139C18.9895 140.028 19.0408 145.08 18.7778 146C18.0714 148.472 19 151.588 19 154.222C19 158.561 20.5744 168.362 23 172" stroke="#165FED" stroke-opacity="0.8" stroke-width="5" stroke-linecap="round"/>
</svg>
