<svg width="280" height="280" viewBox="0 0 280 280" fill="none" xmlns="http://www.w3.org/2000/svg"><rect x="0" y="0" width="11" height="11" fill='none'/><rect x="10" y="0" width="11" height="11" fill='none'/><rect x="20" y="0" width="11" height="11" fill='none'/><rect x="30" y="0" width="11" height="11" fill='none'/><rect x="40" y="0" width="11" height="11" fill='none'/><rect x="50" y="0" width="11" height="11" fill='none'/><rect x="60" y="0" width="11" height="11" fill='none'/><rect x="70" y="0" width="11" height="11" fill='none'/><rect x="80" y="0" width="11" height="11" fill='none'/><rect x="90" y="0" width="11" height="11" fill='none'/><rect x="100" y="0" width="11" height="11" fill='rgba(1,1,1,0)'/><rect x="110" y="0" width="11" height="11" fill='#B3EC91'/><rect x="120" y="0" width="11" height="11" fill='#B3EC91'/><rect x="130" y="0" width="11" height="11" fill='#8A8A8A'/><rect x="140" y="0" width="11" height="11" fill='#B3EC91'/><rect x="150" y="0" width="11" height="11" fill='#8A8A8A'/><rect x="160" y="0" width="11" height="11" fill='#B3EC91'/><rect x="170" y="0" width="11" height="11" fill='#8A8A8A'/><rect x="180" y="0" width="11" height="11" fill='#606060'/><rect x="190" y="0" width="11" height="11" fill='black'/><rect x="200" y="0" width="11" height="11" fill='#606060'/><rect x="210" y="0" width="11" height="11" fill='rgba(1,1,1,0)'/><rect x="220" y="0" width="11" height="11" fill='none'/><rect x="230" y="0" width="11" height="11" fill='none'/><rect x="240" y="0" width="11" height="11" fill='none'/><rect x="250" y="0" width="11" height="11" fill='none'/><rect x="260" y="0" width="11" height="11" fill='none'/><rect x="270" y="0" width="11" height="11" fill='none'/><rect x="0" y="10" width="11" height="11" fill='none'/><rect x="10" y="10" width="11" height="11" fill='none'/><rect x="20" y="10" width="11" height="11" fill='none'/><rect x="30" y="10" width="11" height="11" fill='none'/><rect x="40" y="10" width="11" height="11" fill='none'/><rect x="50" y="10" width="11" height="11" fill='none'/><rect x="60" y="10" width="11" height="11" fill='none'/><rect x="70" y="10" width="11" height="11" fill='none'/><rect x="80" y="10" width="11" height="11" fill='none'/><rect x="90" y="10" width="11" height="11" fill='#B3EC91'/><rect x="100" y="10" width="11" height="11" fill='#B3EC91'/><rect x="110" y="10" width="11" height="11" fill='#72B14B'/><rect x="120" y="10" width="11" height="11" fill='#72B14B'/><rect x="130" y="10" width="11" height="11" fill='#72B14B'/><rect x="140" y="10" width="11" height="11" fill='#72B14B'/><rect x="150" y="10" width="11" height="11" fill='#72B14B'/><rect x="160" y="10" width="11" height="11" fill='#72B14B'/><rect x="170" y="10" width="11" height="11" fill='#72B14B'/><rect x="180" y="10" width="11" height="11" fill='#72B14B'/><rect x="190" y="10" width="11" height="11" fill='#72B14B'/><rect x="200" y="10" width="11" height="11" fill='#72B14B'/><rect x="210" y="10" width="11" height="11" fill='#606060'/><rect x="220" y="10" width="11" height="11" fill='black'/><rect x="230" y="10" width="11" height="11" fill='none'/><rect x="240" y="10" width="11" height="11" fill='none'/><rect x="250" y="10" width="11" height="11" fill='none'/><rect x="260" y="10" width="11" height="11" fill='none'/><rect x="270" y="10" width="11" height="11" fill='none'/><rect x="0" y="20" width="11" height="11" fill='none'/><rect x="10" y="20" width="11" height="11" fill='none'/><rect x="20" y="20" width="11" height="11" fill='none'/><rect x="30" y="20" width="11" height="11" fill='none'/><rect x="40" y="20" width="11" height="11" fill='none'/><rect x="50" y="20" width="11" height="11" fill='none'/><rect x="60" y="20" width="11" height="11" fill='none'/><rect x="70" y="20" width="11" height="11" fill='none'/><rect x="80" y="20" width="11" height="11" fill='#B3EC91'/><rect x="90" y="20" width="11" height="11" fill='#72B14B'/><rect x="100" y="20" width="11" height="11" fill='#72B14B'/><rect x="110" y="20" width="11" height="11" fill='#72B14B'/><rect x="120" y="20" width="11" height="11" fill='#72B14B'/><rect x="130" y="20" width="11" height="11" fill='#72B14B'/><rect x="140" y="20" width="11" height="11" fill='#72B14B'/><rect x="150" y="20" width="11" height="11" fill='#72B14B'/><rect x="160" y="20" width="11" height="11" fill='#72B14B'/><rect x="170" y="20" width="11" height="11" fill='#72B14B'/><rect x="180" y="20" width="11" height="11" fill='#72B14B'/><rect x="190" y="20" width="11" height="11" fill='#72B14B'/><rect x="200" y="20" width="11" height="11" fill='#72B14B'/><rect x="210" y="20" width="11" height="11" fill='#72B14B'/><rect x="220" y="20" width="11" height="11" fill='#606060'/><rect x="230" y="20" width="11" height="11" fill='black'/><rect x="240" y="20" width="11" height="11" fill='none'/><rect x="250" y="20" width="11" height="11" fill='none'/><rect x="260" y="20" width="11" height="11" fill='none'/><rect x="270" y="20" width="11" height="11" fill='none'/><rect x="0" y="30" width="11" height="11" fill='none'/><rect x="10" y="30" width="11" height="11" fill='none'/><rect x="20" y="30" width="11" height="11" fill='none'/><rect x="30" y="30" width="11" height="11" fill='none'/><rect x="40" y="30" width="11" height="11" fill='none'/><rect x="50" y="30" width="11" height="11" fill='none'/><rect x="60" y="30" width="11" height="11" fill='none'/><rect x="70" y="30" width="11" height="11" fill='none'/><rect x="80" y="30" width="11" height="11" fill='#606060'/><rect x="90" y="30" width="11" height="11" fill='#606060'/><rect x="100" y="30" width="11" height="11" fill='#675200'/><rect x="110" y="30" width="11" height="11" fill='#606060'/><rect x="120" y="30" width="11" height="11" fill='#72B14B'/><rect x="130" y="30" width="11" height="11" fill='#72B14B'/><rect x="140" y="30" width="11" height="11" fill='#72B14B'/><rect x="150" y="30" width="11" height="11" fill='#72B14B'/><rect x="160" y="30" width="11" height="11" fill='#72B14B'/><rect x="170" y="30" width="11" height="11" fill='#72B14B'/><rect x="180" y="30" width="11" height="11" fill='#72B14B'/><rect x="190" y="30" width="11" height="11" fill='#606060'/><rect x="200" y="30" width="11" height="11" fill='#606060'/><rect x="210" y="30" width="11" height="11" fill='#675200'/><rect x="220" y="30" width="11" height="11" fill='#72B14B'/><rect x="230" y="30" width="11" height="11" fill='black'/><rect x="240" y="30" width="11" height="11" fill='none'/><rect x="250" y="30" width="11" height="11" fill='none'/><rect x="260" y="30" width="11" height="11" fill='none'/><rect x="270" y="30" width="11" height="11" fill='none'/><rect x="0" y="40" width="11" height="11" fill='none'/><rect x="10" y="40" width="11" height="11" fill='none'/><rect x="20" y="40" width="11" height="11" fill='none'/><rect x="30" y="40" width="11" height="11" fill='none'/><rect x="40" y="40" width="11" height="11" fill='none'/><rect x="50" y="40" width="11" height="11" fill='none'/><rect x="60" y="40" width="11" height="11" fill='none'/><rect x="70" y="40" width="11" height="11" fill='none'/><rect x="80" y="40" width="11" height="11" fill='none'/><rect x="90" y="40" width="11" height="11" fill='#675200'/><rect x="100" y="40" width="11" height="11" fill='#D5DF7C'/><rect x="110" y="40" width="11" height="11" fill='#72B14B'/><rect x="120" y="40" width="11" height="11" fill='#675200'/><rect x="130" y="40" width="11" height="11" fill='#606060'/><rect x="140" y="40" width="11" height="11" fill='#675200'/><rect x="150" y="40" width="11" height="11" fill='#606060'/><rect x="160" y="40" width="11" height="11" fill='#675200'/><rect x="170" y="40" width="11" height="11" fill='#675200'/><rect x="180" y="40" width="11" height="11" fill='#675200'/><rect x="190" y="40" width="11" height="11" fill='#72B14B'/><rect x="200" y="40" width="11" height="11" fill='#72B14B'/><rect x="210" y="40" width="11" height="11" fill='#72B14B'/><rect x="220" y="40" width="11" height="11" fill='black'/><rect x="230" y="40" width="11" height="11" fill='none'/><rect x="240" y="40" width="11" height="11" fill='none'/><rect x="250" y="40" width="11" height="11" fill='none'/><rect x="260" y="40" width="11" height="11" fill='none'/><rect x="270" y="40" width="11" height="11" fill='none'/><rect x="0" y="50" width="11" height="11" fill='none'/><rect x="10" y="50" width="11" height="11" fill='none'/><rect x="20" y="50" width="11" height="11" fill='none'/><rect x="30" y="50" width="11" height="11" fill='none'/><rect x="40" y="50" width="11" height="11" fill='none'/><rect x="50" y="50" width="11" height="11" fill='none'/><rect x="60" y="50" width="11" height="11" fill='none'/><rect x="70" y="50" width="11" height="11" fill='none'/><rect x="80" y="50" width="11" height="11" fill='none'/><rect x="90" y="50" width="11" height="11" fill='#675200'/><rect x="100" y="50" width="11" height="11" fill='#D5DF7C'/><rect x="110" y="50" width="11" height="11" fill='#D5DF7C'/><rect x="120" y="50" width="11" height="11" fill='#D5DF7C'/><rect x="130" y="50" width="11" height="11" fill='#D5DF7C'/><rect x="140" y="50" width="11" height="11" fill='#72B14B'/><rect x="150" y="50" width="11" height="11" fill='#72B14B'/><rect x="160" y="50" width="11" height="11" fill='#675200'/><rect x="170" y="50" width="11" height="11" fill='#D5DF7C'/><rect x="180" y="50" width="11" height="11" fill='#D5DF7C'/><rect x="190" y="50" width="11" height="11" fill='#675200'/><rect x="200" y="50" width="11" height="11" fill='#D5DF7C'/><rect x="210" y="50" width="11" height="11" fill='#D5DF7C'/><rect x="220" y="50" width="11" height="11" fill='black'/><rect x="230" y="50" width="11" height="11" fill='none'/><rect x="240" y="50" width="11" height="11" fill='none'/><rect x="250" y="50" width="11" height="11" fill='none'/><rect x="260" y="50" width="11" height="11" fill='none'/><rect x="270" y="50" width="11" height="11" fill='none'/><rect x="0" y="60" width="11" height="11" fill='none'/><rect x="10" y="60" width="11" height="11" fill='none'/><rect x="20" y="60" width="11" height="11" fill='none'/><rect x="30" y="60" width="11" height="11" fill='none'/><rect x="40" y="60" width="11" height="11" fill='none'/><rect x="50" y="60" width="11" height="11" fill='none'/><rect x="60" y="60" width="11" height="11" fill='none'/><rect x="70" y="60" width="11" height="11" fill='none'/><rect x="80" y="60" width="11" height="11" fill='none'/><rect x="90" y="60" width="11" height="11" fill='black'/><rect x="100" y="60" width="11" height="11" fill='#675200'/><rect x="110" y="60" width="11" height="11" fill='#675200'/><rect x="120" y="60" width="11" height="11" fill='#D5DF7C'/><rect x="130" y="60" width="11" height="11" fill='#D5DF7C'/><rect x="140" y="60" width="11" height="11" fill='#D5DF7C'/><rect x="150" y="60" width="11" height="11" fill='#675200'/><rect x="160" y="60" width="11" height="11" fill='#D5DF7C'/><rect x="170" y="60" width="11" height="11" fill='#D5DF7C'/><rect x="180" y="60" width="11" height="11" fill='#D5DF7C'/><rect x="190" y="60" width="11" height="11" fill='#D5DF7C'/><rect x="200" y="60" width="11" height="11" fill='#675200'/><rect x="210" y="60" width="11" height="11" fill='black'/><rect x="220" y="60" width="11" height="11" fill='none'/><rect x="230" y="60" width="11" height="11" fill='none'/><rect x="240" y="60" width="11" height="11" fill='none'/><rect x="250" y="60" width="11" height="11" fill='none'/><rect x="260" y="60" width="11" height="11" fill='none'/><rect x="270" y="60" width="11" height="11" fill='none'/><rect x="0" y="70" width="11" height="11" fill='none'/><rect x="10" y="70" width="11" height="11" fill='none'/><rect x="20" y="70" width="11" height="11" fill='none'/><rect x="30" y="70" width="11" height="11" fill='none'/><rect x="40" y="70" width="11" height="11" fill='none'/><rect x="50" y="70" width="11" height="11" fill='none'/><rect x="60" y="70" width="11" height="11" fill='none'/><rect x="70" y="70" width="11" height="11" fill='none'/><rect x="80" y="70" width="11" height="11" fill='none'/><rect x="90" y="70" width="11" height="11" fill='black'/><rect x="100" y="70" width="11" height="11" fill='black'/><rect x="110" y="70" width="11" height="11" fill='black'/><rect x="120" y="70" width="11" height="11" fill='#675200'/><rect x="130" y="70" width="11" height="11" fill='black'/><rect x="140" y="70" width="11" height="11" fill='#675200'/><rect x="150" y="70" width="11" height="11" fill='black'/><rect x="160" y="70" width="11" height="11" fill='#675200'/><rect x="170" y="70" width="11" height="11" fill='black'/><rect x="180" y="70" width="11" height="11" fill='#675200'/><rect x="190" y="70" width="11" height="11" fill='black'/><rect x="200" y="70" width="11" height="11" fill='black'/><rect x="210" y="70" width="11" height="11" fill='black'/><rect x="220" y="70" width="11" height="11" fill='black'/><rect x="230" y="70" width="11" height="11" fill='none'/><rect x="240" y="70" width="11" height="11" fill='none'/><rect x="250" y="70" width="11" height="11" fill='none'/><rect x="260" y="70" width="11" height="11" fill='none'/><rect x="270" y="70" width="11" height="11" fill='none'/><rect x="0" y="80" width="11" height="11" fill='none'/><rect x="10" y="80" width="11" height="11" fill='none'/><rect x="20" y="80" width="11" height="11" fill='none'/><rect x="30" y="80" width="11" height="11" fill='none'/><rect x="40" y="80" width="11" height="11" fill='none'/><rect x="50" y="80" width="11" height="11" fill='none'/><rect x="60" y="80" width="11" height="11" fill='none'/><rect x="70" y="80" width="11" height="11" fill='none'/><rect x="80" y="80" width="11" height="11" fill='#606060'/><rect x="90" y="80" width="11" height="11" fill='#606060'/><rect x="100" y="80" width="11" height="11" fill='black'/><rect x="110" y="80" width="11" height="11" fill='black'/><rect x="120" y="80" width="11" height="11" fill='#606060'/><rect x="130" y="80" width="11" height="11" fill='black'/><rect x="140" y="80" width="11" height="11" fill='#606060'/><rect x="150" y="80" width="11" height="11" fill='black'/><rect x="160" y="80" width="11" height="11" fill='black'/><rect x="170" y="80" width="11" height="11" fill='black'/><rect x="180" y="80" width="11" height="11" fill='black'/><rect x="190" y="80" width="11" height="11" fill='black'/><rect x="200" y="80" width="11" height="11" fill='black'/><rect x="210" y="80" width="11" height="11" fill='black'/><rect x="220" y="80" width="11" height="11" fill='black'/><rect x="230" y="80" width="11" height="11" fill='none'/><rect x="240" y="80" width="11" height="11" fill='none'/><rect x="250" y="80" width="11" height="11" fill='none'/><rect x="260" y="80" width="11" height="11" fill='none'/><rect x="270" y="80" width="11" height="11" fill='none'/><rect x="0" y="90" width="11" height="11" fill='none'/><rect x="10" y="90" width="11" height="11" fill='none'/><rect x="20" y="90" width="11" height="11" fill='none'/><rect x="30" y="90" width="11" height="11" fill='none'/><rect x="40" y="90" width="11" height="11" fill='none'/><rect x="50" y="90" width="11" height="11" fill='none'/><rect x="60" y="90" width="11" height="11" fill='none'/><rect x="70" y="90" width="11" height="11" fill='none'/><rect x="80" y="90" width="11" height="11" fill='#C18178'/><rect x="90" y="90" width="11" height="11" fill='#606060'/><rect x="100" y="90" width="11" height="11" fill='#606060'/><rect x="110" y="90" width="11" height="11" fill='black'/><rect x="120" y="90" width="11" height="11" fill='black'/><rect x="130" y="90" width="11" height="11" fill='#606060'/><rect x="140" y="90" width="11" height="11" fill='black'/><rect x="150" y="90" width="11" height="11" fill='#606060'/><rect x="160" y="90" width="11" height="11" fill='black'/><rect x="170" y="90" width="11" height="11" fill='black'/><rect x="180" y="90" width="11" height="11" fill='black'/><rect x="190" y="90" width="11" height="11" fill='black'/><rect x="200" y="90" width="11" height="11" fill='black'/><rect x="210" y="90" width="11" height="11" fill='black'/><rect x="220" y="90" width="11" height="11" fill='none'/><rect x="230" y="90" width="11" height="11" fill='none'/><rect x="240" y="90" width="11" height="11" fill='none'/><rect x="250" y="90" width="11" height="11" fill='none'/><rect x="260" y="90" width="11" height="11" fill='none'/><rect x="270" y="90" width="11" height="11" fill='none'/><rect x="0" y="100" width="11" height="11" fill='none'/><rect x="10" y="100" width="11" height="11" fill='none'/><rect x="20" y="100" width="11" height="11" fill='none'/><rect x="30" y="100" width="11" height="11" fill='none'/><rect x="40" y="100" width="11" height="11" fill='none'/><rect x="50" y="100" width="11" height="11" fill='none'/><rect x="60" y="100" width="11" height="11" fill='none'/><rect x="70" y="100" width="11" height="11" fill='none'/><rect x="80" y="100" width="11" height="11" fill='#C18178'/><rect x="90" y="100" width="11" height="11" fill='#924A40'/><rect x="100" y="100" width="11" height="11" fill='#C18178'/><rect x="110" y="100" width="11" height="11" fill='#924A40'/><rect x="120" y="100" width="11" height="11" fill='#606060'/><rect x="130" y="100" width="11" height="11" fill='#924A40'/><rect x="140" y="100" width="11" height="11" fill='black'/><rect x="150" y="100" width="11" height="11" fill='black'/><rect x="160" y="100" width="11" height="11" fill='black'/><rect x="170" y="100" width="11" height="11" fill='black'/><rect x="180" y="100" width="11" height="11" fill='black'/><rect x="190" y="100" width="11" height="11" fill='black'/><rect x="200" y="100" width="11" height="11" fill='#924A40'/><rect x="210" y="100" width="11" height="11" fill='#606060'/><rect x="220" y="100" width="11" height="11" fill='none'/><rect x="230" y="100" width="11" height="11" fill='none'/><rect x="240" y="100" width="11" height="11" fill='none'/><rect x="250" y="100" width="11" height="11" fill='none'/><rect x="260" y="100" width="11" height="11" fill='none'/><rect x="270" y="100" width="11" height="11" fill='none'/><rect x="0" y="110" width="11" height="11" fill='none'/><rect x="10" y="110" width="11" height="11" fill='none'/><rect x="20" y="110" width="11" height="11" fill='none'/><rect x="30" y="110" width="11" height="11" fill='none'/><rect x="40" y="110" width="11" height="11" fill='none'/><rect x="50" y="110" width="11" height="11" fill='none'/><rect x="60" y="110" width="11" height="11" fill='none'/><rect x="70" y="110" width="11" height="11" fill='none'/><rect x="80" y="110" width="11" height="11" fill='#C18178'/><rect x="90" y="110" width="11" height="11" fill='#C18178'/><rect x="100" y="110" width="11" height="11" fill='#606060'/><rect x="110" y="110" width="11" height="11" fill='#C18178'/><rect x="120" y="110" width="11" height="11" fill='#924A40'/><rect x="130" y="110" width="11" height="11" fill='#606060'/><rect x="140" y="110" width="11" height="11" fill='#924A40'/><rect x="150" y="110" width="11" height="11" fill='#606060'/><rect x="160" y="110" width="11" height="11" fill='#C18178'/><rect x="170" y="110" width="11" height="11" fill='#C18178'/><rect x="180" y="110" width="11" height="11" fill='#606060'/><rect x="190" y="110" width="11" height="11" fill='#924A40'/><rect x="200" y="110" width="11" height="11" fill='#C18178'/><rect x="210" y="110" width="11" height="11" fill='#606060'/><rect x="220" y="110" width="11" height="11" fill='none'/><rect x="230" y="110" width="11" height="11" fill='none'/><rect x="240" y="110" width="11" height="11" fill='none'/><rect x="250" y="110" width="11" height="11" fill='none'/><rect x="260" y="110" width="11" height="11" fill='none'/><rect x="270" y="110" width="11" height="11" fill='none'/><rect x="0" y="120" width="11" height="11" fill='none'/><rect x="10" y="120" width="11" height="11" fill='none'/><rect x="20" y="120" width="11" height="11" fill='none'/><rect x="30" y="120" width="11" height="11" fill='none'/><rect x="40" y="120" width="11" height="11" fill='none'/><rect x="50" y="120" width="11" height="11" fill='none'/><rect x="60" y="120" width="11" height="11" fill='none'/><rect x="70" y="120" width="11" height="11" fill='none'/><rect x="80" y="120" width="11" height="11" fill='none'/><rect x="90" y="120" width="11" height="11" fill='#924A40'/><rect x="100" y="120" width="11" height="11" fill='#606060'/><rect x="110" y="120" width="11" height="11" fill='#C18178'/><rect x="120" y="120" width="11" height="11" fill='#B3B3B3'/><rect x="130" y="120" width="11" height="11" fill='#C18178'/><rect x="140" y="120" width="11" height="11" fill='#C18178'/><rect x="150" y="120" width="11" height="11" fill='#C18178'/><rect x="160" y="120" width="11" height="11" fill='#B3B3B3'/><rect x="170" y="120" width="11" height="11" fill='#B3B3B3'/><rect x="180" y="120" width="11" height="11" fill='#C18178'/><rect x="190" y="120" width="11" height="11" fill='#C18178'/><rect x="200" y="120" width="11" height="11" fill='#924A40'/><rect x="210" y="120" width="11" height="11" fill='#924A40'/><rect x="220" y="120" width="11" height="11" fill='none'/><rect x="230" y="120" width="11" height="11" fill='none'/><rect x="240" y="120" width="11" height="11" fill='none'/><rect x="250" y="120" width="11" height="11" fill='none'/><rect x="260" y="120" width="11" height="11" fill='none'/><rect x="270" y="120" width="11" height="11" fill='none'/><rect x="0" y="130" width="11" height="11" fill='none'/><rect x="10" y="130" width="11" height="11" fill='none'/><rect x="20" y="130" width="11" height="11" fill='none'/><rect x="30" y="130" width="11" height="11" fill='none'/><rect x="40" y="130" width="11" height="11" fill='none'/><rect x="50" y="130" width="11" height="11" fill='none'/><rect x="60" y="130" width="11" height="11" fill='none'/><rect x="70" y="130" width="11" height="11" fill='none'/><rect x="80" y="130" width="11" height="11" fill='none'/><rect x="90" y="130" width="11" height="11" fill='none'/><rect x="100" y="130" width="11" height="11" fill='#924A40'/><rect x="110" y="130" width="11" height="11" fill='#B3B3B3'/><rect x="120" y="130" width="11" height="11" fill='#C18178'/><rect x="130" y="130" width="11" height="11" fill='#C18178'/><rect x="140" y="130" width="11" height="11" fill='#924A40'/><rect x="150" y="130" width="11" height="11" fill='#C18178'/><rect x="160" y="130" width="11" height="11" fill='#C18178'/><rect x="170" y="130" width="11" height="11" fill='#C18178'/><rect x="180" y="130" width="11" height="11" fill='#C18178'/><rect x="190" y="130" width="11" height="11" fill='#606060'/><rect x="200" y="130" width="11" height="11" fill='#606060'/><rect x="210" y="130" width="11" height="11" fill='#C18178'/><rect x="220" y="130" width="11" height="11" fill='none'/><rect x="230" y="130" width="11" height="11" fill='none'/><rect x="240" y="130" width="11" height="11" fill='none'/><rect x="250" y="130" width="11" height="11" fill='none'/><rect x="260" y="130" width="11" height="11" fill='none'/><rect x="270" y="130" width="11" height="11" fill='none'/><rect x="0" y="140" width="11" height="11" fill='none'/><rect x="10" y="140" width="11" height="11" fill='none'/><rect x="20" y="140" width="11" height="11" fill='none'/><rect x="30" y="140" width="11" height="11" fill='none'/><rect x="40" y="140" width="11" height="11" fill='none'/><rect x="50" y="140" width="11" height="11" fill='none'/><rect x="60" y="140" width="11" height="11" fill='none'/><rect x="70" y="140" width="11" height="11" fill='none'/><rect x="80" y="140" width="11" height="11" fill='none'/><rect x="90" y="140" width="11" height="11" fill='none'/><rect x="100" y="140" width="11" height="11" fill='#C18178'/><rect x="110" y="140" width="11" height="11" fill='#C18178'/><rect x="120" y="140" width="11" height="11" fill='#C18178'/><rect x="130" y="140" width="11" height="11" fill='#924A40'/><rect x="140" y="140" width="11" height="11" fill='#C18178'/><rect x="150" y="140" width="11" height="11" fill='#924A40'/><rect x="160" y="140" width="11" height="11" fill='#606060'/><rect x="170" y="140" width="11" height="11" fill='#924A40'/><rect x="180" y="140" width="11" height="11" fill='#606060'/><rect x="190" y="140" width="11" height="11" fill='#924A40'/><rect x="200" y="140" width="11" height="11" fill='#C18178'/><rect x="210" y="140" width="11" height="11" fill='#606060'/><rect x="220" y="140" width="11" height="11" fill='none'/><rect x="230" y="140" width="11" height="11" fill='none'/><rect x="240" y="140" width="11" height="11" fill='none'/><rect x="250" y="140" width="11" height="11" fill='none'/><rect x="260" y="140" width="11" height="11" fill='none'/><rect x="270" y="140" width="11" height="11" fill='none'/><rect x="0" y="150" width="11" height="11" fill='none'/><rect x="10" y="150" width="11" height="11" fill='none'/><rect x="20" y="150" width="11" height="11" fill='none'/><rect x="30" y="150" width="11" height="11" fill='none'/><rect x="40" y="150" width="11" height="11" fill='none'/><rect x="50" y="150" width="11" height="11" fill='none'/><rect x="60" y="150" width="11" height="11" fill='none'/><rect x="70" y="150" width="11" height="11" fill='none'/><rect x="80" y="150" width="11" height="11" fill='none'/><rect x="90" y="150" width="11" height="11" fill='#B3EC91'/><rect x="100" y="150" width="11" height="11" fill='#924A40'/><rect x="110" y="150" width="11" height="11" fill='#C18178'/><rect x="120" y="150" width="11" height="11" fill='#C18178'/><rect x="130" y="150" width="11" height="11" fill='#C18178'/><rect x="140" y="150" width="11" height="11" fill='#675200'/><rect x="150" y="150" width="11" height="11" fill='#675200'/><rect x="160" y="150" width="11" height="11" fill='#675200'/><rect x="170" y="150" width="11" height="11" fill='#675200'/><rect x="180" y="150" width="11" height="11" fill='#606060'/><rect x="190" y="150" width="11" height="11" fill='#C18178'/><rect x="200" y="150" width="11" height="11" fill='#C18178'/><rect x="210" y="150" width="11" height="11" fill='#924A40'/><rect x="220" y="150" width="11" height="11" fill='none'/><rect x="230" y="150" width="11" height="11" fill='none'/><rect x="240" y="150" width="11" height="11" fill='none'/><rect x="250" y="150" width="11" height="11" fill='none'/><rect x="260" y="150" width="11" height="11" fill='none'/><rect x="270" y="150" width="11" height="11" fill='none'/><rect x="0" y="160" width="11" height="11" fill='none'/><rect x="10" y="160" width="11" height="11" fill='none'/><rect x="20" y="160" width="11" height="11" fill='none'/><rect x="30" y="160" width="11" height="11" fill='none'/><rect x="40" y="160" width="11" height="11" fill='none'/><rect x="50" y="160" width="11" height="11" fill='none'/><rect x="60" y="160" width="11" height="11" fill='none'/><rect x="70" y="160" width="11" height="11" fill='none'/><rect x="80" y="160" width="11" height="11" fill='#B3EC91'/><rect x="90" y="160" width="11" height="11" fill='#B3EC91'/><rect x="100" y="160" width="11" height="11" fill='#72B14B'/><rect x="110" y="160" width="11" height="11" fill='#924A40'/><rect x="120" y="160" width="11" height="11" fill='#924A40'/><rect x="130" y="160" width="11" height="11" fill='#C18178'/><rect x="140" y="160" width="11" height="11" fill='#B3B3B3'/><rect x="150" y="160" width="11" height="11" fill='#B3B3B3'/><rect x="160" y="160" width="11" height="11" fill='#B3B3B3'/><rect x="170" y="160" width="11" height="11" fill='#B3B3B3'/><rect x="180" y="160" width="11" height="11" fill='#C18178'/><rect x="190" y="160" width="11" height="11" fill='#C18178'/><rect x="200" y="160" width="11" height="11" fill='#924A40'/><rect x="210" y="160" width="11" height="11" fill='rgba(1,1,1,0)'/><rect x="220" y="160" width="11" height="11" fill='none'/><rect x="230" y="160" width="11" height="11" fill='none'/><rect x="240" y="160" width="11" height="11" fill='none'/><rect x="250" y="160" width="11" height="11" fill='none'/><rect x="260" y="160" width="11" height="11" fill='none'/><rect x="270" y="160" width="11" height="11" fill='none'/><rect x="0" y="170" width="11" height="11" fill='none'/><rect x="10" y="170" width="11" height="11" fill='none'/><rect x="20" y="170" width="11" height="11" fill='none'/><rect x="30" y="170" width="11" height="11" fill='none'/><rect x="40" y="170" width="11" height="11" fill='none'/><rect x="50" y="170" width="11" height="11" fill='none'/><rect x="60" y="170" width="11" height="11" fill='#D5DF7C'/><rect x="70" y="170" width="11" height="11" fill='#D5DF7C'/><rect x="80" y="170" width="11" height="11" fill='#B3EC91'/><rect x="90" y="170" width="11" height="11" fill='#72B14B'/><rect x="100" y="170" width="11" height="11" fill='#B3EC91'/><rect x="110" y="170" width="11" height="11" fill='#72B14B'/><rect x="120" y="170" width="11" height="11" fill='#924A40'/><rect x="130" y="170" width="11" height="11" fill='#C18178'/><rect x="140" y="170" width="11" height="11" fill='#C18178'/><rect x="150" y="170" width="11" height="11" fill='#C18178'/><rect x="160" y="170" width="11" height="11" fill='#C18178'/><rect x="170" y="170" width="11" height="11" fill='#C18178'/><rect x="180" y="170" width="11" height="11" fill='#C18178'/><rect x="190" y="170" width="11" height="11" fill='#924A40'/><rect x="200" y="170" width="11" height="11" fill='#72B14B'/><rect x="210" y="170" width="11" height="11" fill='#675200'/><rect x="220" y="170" width="11" height="11" fill='#D5DF7C'/><rect x="230" y="170" width="11" height="11" fill='#D5DF7C'/><rect x="240" y="170" width="11" height="11" fill='#D5DF7C'/><rect x="250" y="170" width="11" height="11" fill='#B3B3B3'/><rect x="260" y="170" width="11" height="11" fill='rgba(1,1,1,0)'/><rect x="270" y="170" width="11" height="11" fill='none'/><rect x="0" y="180" width="11" height="11" fill='none'/><rect x="10" y="180" width="11" height="11" fill='none'/><rect x="20" y="180" width="11" height="11" fill='none'/><rect x="30" y="180" width="11" height="11" fill='#D5DF7C'/><rect x="40" y="180" width="11" height="11" fill='#D5DF7C'/><rect x="50" y="180" width="11" height="11" fill='#D5DF7C'/><rect x="60" y="180" width="11" height="11" fill='#D5DF7C'/><rect x="70" y="180" width="11" height="11" fill='#8A8A8A'/><rect x="80" y="180" width="11" height="11" fill='#606060'/><rect x="90" y="180" width="11" height="11" fill='#675200'/><rect x="100" y="180" width="11" height="11" fill='#72B14B'/><rect x="110" y="180" width="11" height="11" fill='#72B14B'/><rect x="120" y="180" width="11" height="11" fill='#72B14B'/><rect x="130" y="180" width="11" height="11" fill='#924A40'/><rect x="140" y="180" width="11" height="11" fill='#C18178'/><rect x="150" y="180" width="11" height="11" fill='#C18178'/><rect x="160" y="180" width="11" height="11" fill='#924A40'/><rect x="170" y="180" width="11" height="11" fill='#C18178'/><rect x="180" y="180" width="11" height="11" fill='#924A40'/><rect x="190" y="180" width="11" height="11" fill='#72B14B'/><rect x="200" y="180" width="11" height="11" fill='#72B14B'/><rect x="210" y="180" width="11" height="11" fill='#675200'/><rect x="220" y="180" width="11" height="11" fill='#72B14B'/><rect x="230" y="180" width="11" height="11" fill='#72B14B'/><rect x="240" y="180" width="11" height="11" fill='#D5DF7C'/><rect x="250" y="180" width="11" height="11" fill='#D5DF7C'/><rect x="260" y="180" width="11" height="11" fill='#B3B3B3'/><rect x="270" y="180" width="11" height="11" fill='rgba(1,1,1,0)'/><rect x="0" y="190" width="11" height="11" fill='none'/><rect x="10" y="190" width="11" height="11" fill='none'/><rect x="20" y="190" width="11" height="11" fill='#D5DF7C'/><rect x="30" y="190" width="11" height="11" fill='white'/><rect x="40" y="190" width="11" height="11" fill='white'/><rect x="50" y="190" width="11" height="11" fill='white'/><rect x="60" y="190" width="11" height="11" fill='#D5DF7C'/><rect x="70" y="190" width="11" height="11" fill='#72B14B'/><rect x="80" y="190" width="11" height="11" fill='#72B14B'/><rect x="90" y="190" width="11" height="11" fill='#72B14B'/><rect x="100" y="190" width="11" height="11" fill='#675200'/><rect x="110" y="190" width="11" height="11" fill='#72B14B'/><rect x="120" y="190" width="11" height="11" fill='#72B14B'/><rect x="130" y="190" width="11" height="11" fill='#72B14B'/><rect x="140" y="190" width="11" height="11" fill='#924A40'/><rect x="150" y="190" width="11" height="11" fill='#924A40'/><rect x="160" y="190" width="11" height="11" fill='#924A40'/><rect x="170" y="190" width="11" height="11" fill='#924A40'/><rect x="180" y="190" width="11" height="11" fill='#72B14B'/><rect x="190" y="190" width="11" height="11" fill='#72B14B'/><rect x="200" y="190" width="11" height="11" fill='#675200'/><rect x="210" y="190" width="11" height="11" fill='#72B14B'/><rect x="220" y="190" width="11" height="11" fill='none'/><rect x="230" y="190" width="11" height="11" fill='none'/><rect x="240" y="190" width="11" height="11" fill='#72B14B'/><rect x="250" y="190" width="11" height="11" fill='#72B14B'/><rect x="260" y="190" width="11" height="11" fill='#D5DF7C'/><rect x="270" y="190" width="11" height="11" fill='#B3B3B3'/><rect x="0" y="200" width="11" height="11" fill='none'/><rect x="10" y="200" width="11" height="11" fill='none'/><rect x="20" y="200" width="11" height="11" fill='#D5DF7C'/><rect x="30" y="200" width="11" height="11" fill='#D5DF7C'/><rect x="40" y="200" width="11" height="11" fill='#D5DF7C'/><rect x="50" y="200" width="11" height="11" fill='#D5DF7C'/><rect x="60" y="200" width="11" height="11" fill='#72B14B'/><rect x="70" y="200" width="11" height="11" fill='#72B14B'/><rect x="80" y="200" width="11" height="11" fill='#72B14B'/><rect x="90" y="200" width="11" height="11" fill='#72B14B'/><rect x="100" y="200" width="11" height="11" fill='#72B14B'/><rect x="110" y="200" width="11" height="11" fill='#675200'/><rect x="120" y="200" width="11" height="11" fill='#675200'/><rect x="130" y="200" width="11" height="11" fill='#72B14B'/><rect x="140" y="200" width="11" height="11" fill='#72B14B'/><rect x="150" y="200" width="11" height="11" fill='#675200'/><rect x="160" y="200" width="11" height="11" fill='#675200'/><rect x="170" y="200" width="11" height="11" fill='#72B14B'/><rect x="180" y="200" width="11" height="11" fill='#72B14B'/><rect x="190" y="200" width="11" height="11" fill='#675200'/><rect x="200" y="200" width="11" height="11" fill='#675200'/><rect x="210" y="200" width="11" height="11" fill='#867ADE'/><rect x="220" y="200" width="11" height="11" fill='#867ADE'/><rect x="230" y="200" width="11" height="11" fill='#483AAA'/><rect x="240" y="200" width="11" height="11" fill='#483AAA'/><rect x="250" y="200" width="11" height="11" fill='#72B14B'/><rect x="260" y="200" width="11" height="11" fill='#72B14B'/><rect x="270" y="200" width="11" height="11" fill='#B3B3B3'/><rect x="0" y="210" width="11" height="11" fill='none'/><rect x="10" y="210" width="11" height="11" fill='none'/><rect x="20" y="210" width="11" height="11" fill='#D5DF7C'/><rect x="30" y="210" width="11" height="11" fill='#B3EC91'/><rect x="40" y="210" width="11" height="11" fill='#D5DF7C'/><rect x="50" y="210" width="11" height="11" fill='#D5DF7C'/><rect x="60" y="210" width="11" height="11" fill='#B3EC91'/><rect x="70" y="210" width="11" height="11" fill='#72B14B'/><rect x="80" y="210" width="11" height="11" fill='#72B14B'/><rect x="90" y="210" width="11" height="11" fill='#72B14B'/><rect x="100" y="210" width="11" height="11" fill='#72B14B'/><rect x="110" y="210" width="11" height="11" fill='#72B14B'/><rect x="120" y="210" width="11" height="11" fill='#72B14B'/><rect x="130" y="210" width="11" height="11" fill='#675200'/><rect x="140" y="210" width="11" height="11" fill='#72B14B'/><rect x="150" y="210" width="11" height="11" fill='#675200'/><rect x="160" y="210" width="11" height="11" fill='#72B14B'/><rect x="170" y="210" width="11" height="11" fill='#675200'/><rect x="180" y="210" width="11" height="11" fill='#675200'/><rect x="190" y="210" width="11" height="11" fill='#84C5CC'/><rect x="200" y="210" width="11" height="11" fill='#84C5CC'/><rect x="210" y="210" width="11" height="11" fill='#D5DF7C'/><rect x="220" y="210" width="11" height="11" fill='#D5DF7C'/><rect x="230" y="210" width="11" height="11" fill='#867ADE'/><rect x="240" y="210" width="11" height="11" fill='#9351B6'/><rect x="250" y="210" width="11" height="11" fill='none'/><rect x="260" y="210" width="11" height="11" fill='#72B14B'/><rect x="270" y="210" width="11" height="11" fill='#D5DF7C'/><rect x="0" y="220" width="11" height="11" fill='none'/><rect x="10" y="220" width="11" height="11" fill='none'/><rect x="20" y="220" width="11" height="11" fill='#B3EC91'/><rect x="30" y="220" width="11" height="11" fill='#D5DF7C'/><rect x="40" y="220" width="11" height="11" fill='#B3EC91'/><rect x="50" y="220" width="11" height="11" fill='#D5DF7C'/><rect x="60" y="220" width="11" height="11" fill='#72B14B'/><rect x="70" y="220" width="11" height="11" fill='#72B14B'/><rect x="80" y="220" width="11" height="11" fill='#72B14B'/><rect x="90" y="220" width="11" height="11" fill='#72B14B'/><rect x="100" y="220" width="11" height="11" fill='#72B14B'/><rect x="110" y="220" width="11" height="11" fill='#72B14B'/><rect x="120" y="220" width="11" height="11" fill='#72B14B'/><rect x="130" y="220" width="11" height="11" fill='#72B14B'/><rect x="140" y="220" width="11" height="11" fill='#675200'/><rect x="150" y="220" width="11" height="11" fill='#675200'/><rect x="160" y="220" width="11" height="11" fill='#8A8A8A'/><rect x="170" y="220" width="11" height="11" fill='#72B14B'/><rect x="180" y="220" width="11" height="11" fill='#72B14B'/><rect x="190" y="220" width="11" height="11" fill='#C18178'/><rect x="200" y="220" width="11" height="11" fill='#C18178'/><rect x="210" y="220" width="11" height="11" fill='#B3EC91'/><rect x="220" y="220" width="11" height="11" fill='#84C5CC'/><rect x="230" y="220" width="11" height="11" fill='#D5DF7C'/><rect x="240" y="220" width="11" height="11" fill='#D5DF7C'/><rect x="250" y="220" width="11" height="11" fill='none'/><rect x="260" y="220" width="11" height="11" fill='#72B14B'/><rect x="270" y="220" width="11" height="11" fill='#606060'/><rect x="0" y="230" width="11" height="11" fill='none'/><rect x="10" y="230" width="11" height="11" fill='#B3EC91'/><rect x="20" y="230" width="11" height="11" fill='#72B14B'/><rect x="30" y="230" width="11" height="11" fill='#B3EC91'/><rect x="40" y="230" width="11" height="11" fill='#72B14B'/><rect x="50" y="230" width="11" height="11" fill='#B3EC91'/><rect x="60" y="230" width="11" height="11" fill='#72B14B'/><rect x="70" y="230" width="11" height="11" fill='#72B14B'/><rect x="80" y="230" width="11" height="11" fill='#8A8A8A'/><rect x="90" y="230" width="11" height="11" fill='#606060'/><rect x="100" y="230" width="11" height="11" fill='#8A8A8A'/><rect x="110" y="230" width="11" height="11" fill='#606060'/><rect x="120" y="230" width="11" height="11" fill='#8A8A8A'/><rect x="130" y="230" width="11" height="11" fill='#72B14B'/><rect x="140" y="230" width="11" height="11" fill='#72B14B'/><rect x="150" y="230" width="11" height="11" fill='#72B14B'/><rect x="160" y="230" width="11" height="11" fill='#606060'/><rect x="170" y="230" width="11" height="11" fill='#72B14B'/><rect x="180" y="230" width="11" height="11" fill='#72B14B'/><rect x="190" y="230" width="11" height="11" fill='#C33D00'/><rect x="200" y="230" width="11" height="11" fill='#9351B6'/><rect x="210" y="230" width="11" height="11" fill='#867ADE'/><rect x="220" y="230" width="11" height="11" fill='#867ADE'/><rect x="230" y="230" width="11" height="11" fill='#72B14B'/><rect x="240" y="230" width="11" height="11" fill='#72B14B'/><rect x="250" y="230" width="11" height="11" fill='#606060'/><rect x="260" y="230" width="11" height="11" fill='#72B14B'/><rect x="270" y="230" width="11" height="11" fill='#72B14B'/><rect x="0" y="240" width="11" height="11" fill='none'/><rect x="10" y="240" width="11" height="11" fill='#B3EC91'/><rect x="20" y="240" width="11" height="11" fill='#72B14B'/><rect x="30" y="240" width="11" height="11" fill='#72B14B'/><rect x="40" y="240" width="11" height="11" fill='#B3EC91'/><rect x="50" y="240" width="11" height="11" fill='#72B14B'/><rect x="60" y="240" width="11" height="11" fill='#72B14B'/><rect x="70" y="240" width="11" height="11" fill='#72B14B'/><rect x="80" y="240" width="11" height="11" fill='#72B14B'/><rect x="90" y="240" width="11" height="11" fill='#72B14B'/><rect x="100" y="240" width="11" height="11" fill='#8A8A8A'/><rect x="110" y="240" width="11" height="11" fill='#72B14B'/><rect x="120" y="240" width="11" height="11" fill='#8A8A8A'/><rect x="130" y="240" width="11" height="11" fill='#72B14B'/><rect x="140" y="240" width="11" height="11" fill='#8A8A8A'/><rect x="150" y="240" width="11" height="11" fill='#72B14B'/><rect x="160" y="240" width="11" height="11" fill='#675200'/><rect x="170" y="240" width="11" height="11" fill='#8A8A8A'/><rect x="180" y="240" width="11" height="11" fill='#72B14B'/><rect x="190" y="240" width="11" height="11" fill='#72B14B'/><rect x="200" y="240" width="11" height="11" fill='#72B14B'/><rect x="210" y="240" width="11" height="11" fill='#924A40'/><rect x="220" y="240" width="11" height="11" fill='#C33D00'/><rect x="230" y="240" width="11" height="11" fill='#924A40'/><rect x="240" y="240" width="11" height="11" fill='#72B14B'/><rect x="250" y="240" width="11" height="11" fill='#72B14B'/><rect x="260" y="240" width="11" height="11" fill='#72B14B'/><rect x="270" y="240" width="11" height="11" fill='#606060'/><rect x="0" y="250" width="11" height="11" fill='none'/><rect x="10" y="250" width="11" height="11" fill='#B3EC91'/><rect x="20" y="250" width="11" height="11" fill='#72B14B'/><rect x="30" y="250" width="11" height="11" fill='#B3EC91'/><rect x="40" y="250" width="11" height="11" fill='#72B14B'/><rect x="50" y="250" width="11" height="11" fill='#72B14B'/><rect x="60" y="250" width="11" height="11" fill='#72B14B'/><rect x="70" y="250" width="11" height="11" fill='#8A8A8A'/><rect x="80" y="250" width="11" height="11" fill='#72B14B'/><rect x="90" y="250" width="11" height="11" fill='#8A8A8A'/><rect x="100" y="250" width="11" height="11" fill='#72B14B'/><rect x="110" y="250" width="11" height="11" fill='#8A8A8A'/><rect x="120" y="250" width="11" height="11" fill='#72B14B'/><rect x="130" y="250" width="11" height="11" fill='#8A8A8A'/><rect x="140" y="250" width="11" height="11" fill='#72B14B'/><rect x="150" y="250" width="11" height="11" fill='#8A8A8A'/><rect x="160" y="250" width="11" height="11" fill='#8A8A8A'/><rect x="170" y="250" width="11" height="11" fill='#606060'/><rect x="180" y="250" width="11" height="11" fill='#8A8A8A'/><rect x="190" y="250" width="11" height="11" fill='#8A8A8A'/><rect x="200" y="250" width="11" height="11" fill='#C33D00'/><rect x="210" y="250" width="11" height="11" fill='#C33D00'/><rect x="220" y="250" width="11" height="11" fill='#C33D00'/><rect x="230" y="250" width="11" height="11" fill='#C33D00'/><rect x="240" y="250" width="11" height="11" fill='#C33D00'/><rect x="250" y="250" width="11" height="11" fill='#606060'/><rect x="260" y="250" width="11" height="11" fill='#72B14B'/><rect x="270" y="250" width="11" height="11" fill='#72B14B'/><rect x="0" y="260" width="11" height="11" fill='none'/><rect x="10" y="260" width="11" height="11" fill='#B3EC91'/><rect x="20" y="260" width="11" height="11" fill='#72B14B'/><rect x="30" y="260" width="11" height="11" fill='#72B14B'/><rect x="40" y="260" width="11" height="11" fill='#72B14B'/><rect x="50" y="260" width="11" height="11" fill='#72B14B'/><rect x="60" y="260" width="11" height="11" fill='#8A8A8A'/><rect x="70" y="260" width="11" height="11" fill='#606060'/><rect x="80" y="260" width="11" height="11" fill='#72B14B'/><rect x="90" y="260" width="11" height="11" fill='#72B14B'/><rect x="100" y="260" width="11" height="11" fill='#8A8A8A'/><rect x="110" y="260" width="11" height="11" fill='#72B14B'/><rect x="120" y="260" width="11" height="11" fill='#8A8A8A'/><rect x="130" y="260" width="11" height="11" fill='#606060'/><rect x="140" y="260" width="11" height="11" fill='#8A8A8A'/><rect x="150" y="260" width="11" height="11" fill='#606060'/><rect x="160" y="260" width="11" height="11" fill='#675200'/><rect x="170" y="260" width="11" height="11" fill='#8A8A8A'/><rect x="180" y="260" width="11" height="11" fill='#72B14B'/><rect x="190" y="260" width="11" height="11" fill='#72B14B'/><rect x="200" y="260" width="11" height="11" fill='#924A40'/><rect x="210" y="260" width="11" height="11" fill='#C33D00'/><rect x="220" y="260" width="11" height="11" fill='#924A40'/><rect x="230" y="260" width="11" height="11" fill='#C33D00'/><rect x="240" y="260" width="11" height="11" fill='#924A40'/><rect x="250" y="260" width="11" height="11" fill='#72B14B'/><rect x="260" y="260" width="11" height="11" fill='#72B14B'/><rect x="270" y="260" width="11" height="11" fill='#606060'/><rect x="0" y="270" width="11" height="11" fill='none'/><rect x="10" y="270" width="11" height="11" fill='#B3EC91'/><rect x="20" y="270" width="11" height="11" fill='#72B14B'/><rect x="30" y="270" width="11" height="11" fill='#72B14B'/><rect x="40" y="270" width="11" height="11" fill='#72B14B'/><rect x="50" y="270" width="11" height="11" fill='#72B14B'/><rect x="60" y="270" width="11" height="11" fill='#72B14B'/><rect x="70" y="270" width="11" height="11" fill='#8A8A8A'/><rect x="80" y="270" width="11" height="11" fill='#606060'/><rect x="90" y="270" width="11" height="11" fill='#72B14B'/><rect x="100" y="270" width="11" height="11" fill='#72B14B'/><rect x="110" y="270" width="11" height="11" fill='#8A8A8A'/><rect x="120" y="270" width="11" height="11" fill='#72B14B'/><rect x="130" y="270" width="11" height="11" fill='#8A8A8A'/><rect x="140" y="270" width="11" height="11" fill='#72B14B'/><rect x="150" y="270" width="11" height="11" fill='#8A8A8A'/><rect x="160" y="270" width="11" height="11" fill='#606060'/><rect x="170" y="270" width="11" height="11" fill='#675200'/><rect x="180" y="270" width="11" height="11" fill='#72B14B'/><rect x="190" y="270" width="11" height="11" fill='#72B14B'/><rect x="200" y="270" width="11" height="11" fill='#72B14B'/><rect x="210" y="270" width="11" height="11" fill='#924A40'/><rect x="220" y="270" width="11" height="11" fill='#72B14B'/><rect x="230" y="270" width="11" height="11" fill='#924A40'/><rect x="240" y="270" width="11" height="11" fill='#72B14B'/><rect x="250" y="270" width="11" height="11" fill='#606060'/><rect x="260" y="270" width="11" height="11" fill='#72B14B'/><rect x="270" y="270" width="11" height="11" fill='#72B14B'/></svg>