<svg width="240" height="140" viewBox="0 0 240 140" fill="none" xmlns="http://www.w3.org/2000/svg"><rect x="0" y="0" width="11" height="11" fill='none'/><rect x="10" y="0" width="11" height="11" fill='none'/><rect x="20" y="0" width="11" height="11" fill='white'/><rect x="30" y="0" width="11" height="11" fill='white'/><rect x="40" y="0" width="11" height="11" fill='white'/><rect x="50" y="0" width="11" height="11" fill='white'/><rect x="60" y="0" width="11" height="11" fill='white'/><rect x="70" y="0" width="11" height="11" fill='white'/><rect x="80" y="0" width="11" height="11" fill='white'/><rect x="90" y="0" width="11" height="11" fill='white'/><rect x="100" y="0" width="11" height="11" fill='white'/><rect x="110" y="0" width="11" height="11" fill='white'/><rect x="120" y="0" width="11" height="11" fill='rgba(1,1,1,0)'/><rect x="130" y="0" width="11" height="11" fill='rgba(1,1,1,0)'/><rect x="140" y="0" width="11" height="11" fill='white'/><rect x="150" y="0" width="11" height="11" fill='white'/><rect x="160" y="0" width="11" height="11" fill='white'/><rect x="170" y="0" width="11" height="11" fill='lightgray'/><rect x="180" y="0" width="11" height="11" fill='white'/><rect x="190" y="0" width="11" height="11" fill='lightgray'/><rect x="200" y="0" width="11" height="11" fill='lightgray'/><rect x="210" y="0" width="11" height="11" fill='lightgray'/><rect x="220" y="0" width="11" height="11" fill='none'/><rect x="230" y="0" width="11" height="11" fill='none'/><rect x="0" y="10" width="11" height="11" fill='none'/><rect x="10" y="10" width="11" height="11" fill='white'/><rect x="20" y="10" width="11" height="11" fill='lightgray'/><rect x="30" y="10" width="11" height="11" fill='white'/><rect x="40" y="10" width="11" height="11" fill='lightgray'/><rect x="50" y="10" width="11" height="11" fill='lightgray'/><rect x="60" y="10" width="11" height="11" fill='white'/><rect x="70" y="10" width="11" height="11" fill='lightgray'/><rect x="80" y="10" width="11" height="11" fill='lightgray'/><rect x="90" y="10" width="11" height="11" fill='lightgray'/><rect x="100" y="10" width="11" height="11" fill='lightgray'/><rect x="110" y="10" width="11" height="11" fill='pink'/><rect x="120" y="10" width="11" height="11" fill='lightgray'/><rect x="130" y="10" width="11" height="11" fill='rgba(1,1,1,0)'/><rect x="140" y="10" width="11" height="11" fill='lightgray'/><rect x="150" y="10" width="11" height="11" fill='lightgray'/><rect x="160" y="10" width="11" height="11" fill='lightgray'/><rect x="170" y="10" width="11" height="11" fill='lightgray'/><rect x="180" y="10" width="11" height="11" fill='lightgray'/><rect x="190" y="10" width="11" height="11" fill='lightgray'/><rect x="200" y="10" width="11" height="11" fill='lightgray'/><rect x="210" y="10" width="11" height="11" fill='gray'/><rect x="220" y="10" width="11" height="11" fill='lightgray'/><rect x="230" y="10" width="11" height="11" fill='none'/><rect x="0" y="20" width="11" height="11" fill='white'/><rect x="10" y="20" width="11" height="11" fill='lightgray'/><rect x="20" y="20" width="11" height="11" fill='pink'/><rect x="30" y="20" width="11" height="11" fill='red'/><rect x="40" y="20" width="11" height="11" fill='red'/><rect x="50" y="20" width="11" height="11" fill='white'/><rect x="60" y="20" width="11" height="11" fill='lightgray'/><rect x="70" y="20" width="11" height="11" fill='pink'/><rect x="80" y="20" width="11" height="11" fill='red'/><rect x="90" y="20" width="11" height="11" fill='lightgray'/><rect x="100" y="20" width="11" height="11" fill='lightgray'/><rect x="110" y="20" width="11" height="11" fill='red'/><rect x="120" y="20" width="11" height="11" fill='lightgray'/><rect x="130" y="20" width="11" height="11" fill='lightgray'/><rect x="140" y="20" width="11" height="11" fill='lightgray'/><rect x="150" y="20" width="11" height="11" fill='red'/><rect x="160" y="20" width="11" height="11" fill='lightgray'/><rect x="170" y="20" width="11" height="11" fill='red'/><rect x="180" y="20" width="11" height="11" fill='red'/><rect x="190" y="20" width="11" height="11" fill='red'/><rect x="200" y="20" width="11" height="11" fill='lightgray'/><rect x="210" y="20" width="11" height="11" fill='black'/><rect x="220" y="20" width="11" height="11" fill='lightgray'/><rect x="230" y="20" width="11" height="11" fill='gray'/><rect x="0" y="30" width="11" height="11" fill='white'/><rect x="10" y="30" width="11" height="11" fill='white'/><rect x="20" y="30" width="11" height="11" fill='red'/><rect x="30" y="30" width="11" height="11" fill='lightgray'/><rect x="40" y="30" width="11" height="11" fill='lightgray'/><rect x="50" y="30" width="11" height="11" fill='lightgray'/><rect x="60" y="30" width="11" height="11" fill='lightgray'/><rect x="70" y="30" width="11" height="11" fill='red'/><rect x="80" y="30" width="11" height="11" fill='lightgray'/><rect x="90" y="30" width="11" height="11" fill='red'/><rect x="100" y="30" width="11" height="11" fill='lightgray'/><rect x="110" y="30" width="11" height="11" fill='red'/><rect x="120" y="30" width="11" height="11" fill='red'/><rect x="130" y="30" width="11" height="11" fill='lightgray'/><rect x="140" y="30" width="11" height="11" fill='red'/><rect x="150" y="30" width="11" height="11" fill='red'/><rect x="160" y="30" width="11" height="11" fill='gray'/><rect x="170" y="30" width="11" height="11" fill='red'/><rect x="180" y="30" width="11" height="11" fill='lightgray'/><rect x="190" y="30" width="11" height="11" fill='lightgray'/><rect x="200" y="30" width="11" height="11" fill='lightgray'/><rect x="210" y="30" width="11" height="11" fill='lightgray'/><rect x="220" y="30" width="11" height="11" fill='gray'/><rect x="230" y="30" width="11" height="11" fill='gray'/><rect x="0" y="40" width="11" height="11" fill='white'/><rect x="10" y="40" width="11" height="11" fill='lightgray'/><rect x="20" y="40" width="11" height="11" fill='red'/><rect x="30" y="40" width="11" height="11" fill='lightgray'/><rect x="40" y="40" width="11" height="11" fill='red'/><rect x="50" y="40" width="11" height="11" fill='brown'/><rect x="60" y="40" width="11" height="11" fill='gray'/><rect x="70" y="40" width="11" height="11" fill='brown'/><rect x="80" y="40" width="11" height="11" fill='gray'/><rect x="90" y="40" width="11" height="11" fill='brown'/><rect x="100" y="40" width="11" height="11" fill='lightgray'/><rect x="110" y="40" width="11" height="11" fill='red'/><rect x="120" y="40" width="11" height="11" fill='lightgray'/><rect x="130" y="40" width="11" height="11" fill='red'/><rect x="140" y="40" width="11" height="11" fill='lightgray'/><rect x="150" y="40" width="11" height="11" fill='brown'/><rect x="160" y="40" width="11" height="11" fill='lightgray'/><rect x="170" y="40" width="11" height="11" fill='red'/><rect x="180" y="40" width="11" height="11" fill='red'/><rect x="190" y="40" width="11" height="11" fill='red'/><rect x="200" y="40" width="11" height="11" fill='lightgray'/><rect x="210" y="40" width="11" height="11" fill='gray'/><rect x="220" y="40" width="11" height="11" fill='lightgray'/><rect x="230" y="40" width="11" height="11" fill='gray'/><rect x="0" y="50" width="11" height="11" fill='white'/><rect x="10" y="50" width="11" height="11" fill='white'/><rect x="20" y="50" width="11" height="11" fill='red'/><rect x="30" y="50" width="11" height="11" fill='lightgray'/><rect x="40" y="50" width="11" height="11" fill='lightgray'/><rect x="50" y="50" width="11" height="11" fill='red'/><rect x="60" y="50" width="11" height="11" fill='white'/><rect x="70" y="50" width="11" height="11" fill='pink'/><rect x="80" y="50" width="11" height="11" fill='red'/><rect x="90" y="50" width="11" height="11" fill='brown'/><rect x="100" y="50" width="11" height="11" fill='gray'/><rect x="110" y="50" width="11" height="11" fill='red'/><rect x="120" y="50" width="11" height="11" fill='lightgray'/><rect x="130" y="50" width="11" height="11" fill='lightgray'/><rect x="140" y="50" width="11" height="11" fill='gray'/><rect x="150" y="50" width="11" height="11" fill='red'/><rect x="160" y="50" width="11" height="11" fill='lightgray'/><rect x="170" y="50" width="11" height="11" fill='red'/><rect x="180" y="50" width="11" height="11" fill='lightgray'/><rect x="190" y="50" width="11" height="11" fill='lightgray'/><rect x="200" y="50" width="11" height="11" fill='gray'/><rect x="210" y="50" width="11" height="11" fill='lightgray'/><rect x="220" y="50" width="11" height="11" fill='gray'/><rect x="230" y="50" width="11" height="11" fill='gray'/><rect x="0" y="60" width="11" height="11" fill='white'/><rect x="10" y="60" width="11" height="11" fill='lightgray'/><rect x="20" y="60" width="11" height="11" fill='pink'/><rect x="30" y="60" width="11" height="11" fill='red'/><rect x="40" y="60" width="11" height="11" fill='red'/><rect x="50" y="60" width="11" height="11" fill='lightgray'/><rect x="60" y="60" width="11" height="11" fill='lightgray'/><rect x="70" y="60" width="11" height="11" fill='red'/><rect x="80" y="60" width="11" height="11" fill='lightgray'/><rect x="90" y="60" width="11" height="11" fill='red'/><rect x="100" y="60" width="11" height="11" fill='lightgray'/><rect x="110" y="60" width="11" height="11" fill='red'/><rect x="120" y="60" width="11" height="11" fill='lightgray'/><rect x="130" y="60" width="11" height="11" fill='gray'/><rect x="140" y="60" width="11" height="11" fill='lightgray'/><rect x="150" y="60" width="11" height="11" fill='red'/><rect x="160" y="60" width="11" height="11" fill='lightgray'/><rect x="170" y="60" width="11" height="11" fill='brown'/><rect x="180" y="60" width="11" height="11" fill='red'/><rect x="190" y="60" width="11" height="11" fill='red'/><rect x="200" y="60" width="11" height="11" fill='lightgray'/><rect x="210" y="60" width="11" height="11" fill='gray'/><rect x="220" y="60" width="11" height="11" fill='black'/><rect x="230" y="60" width="11" height="11" fill='none'/><rect x="0" y="70" width="11" height="11" fill='lightgray'/><rect x="10" y="70" width="11" height="11" fill='white'/><rect x="20" y="70" width="11" height="11" fill='lightgray'/><rect x="30" y="70" width="11" height="11" fill='lightgray'/><rect x="40" y="70" width="11" height="11" fill='lightgray'/><rect x="50" y="70" width="11" height="11" fill='lightgray'/><rect x="60" y="70" width="11" height="11" fill='lightgray'/><rect x="70" y="70" width="11" height="11" fill='lightgray'/><rect x="80" y="70" width="11" height="11" fill='lightgray'/><rect x="90" y="70" width="11" height="11" fill='lightgray'/><rect x="100" y="70" width="11" height="11" fill='lightgray'/><rect x="110" y="70" width="11" height="11" fill='lightgray'/><rect x="120" y="70" width="11" height="11" fill='lightgray'/><rect x="130" y="70" width="11" height="11" fill='lightgray'/><rect x="140" y="70" width="11" height="11" fill='lightgray'/><rect x="150" y="70" width="11" height="11" fill='lightgray'/><rect x="160" y="70" width="11" height="11" fill='gray'/><rect x="170" y="70" width="11" height="11" fill='gray'/><rect x="180" y="70" width="11" height="11" fill='lightgray'/><rect x="190" y="70" width="11" height="11" fill='lightgray'/><rect x="200" y="70" width="11" height="11" fill='gray'/><rect x="210" y="70" width="11" height="11" fill='gray'/><rect x="220" y="70" width="11" height="11" fill='black'/><rect x="230" y="70" width="11" height="11" fill='none'/><rect x="0" y="80" width="11" height="11" fill='white'/><rect x="10" y="80" width="11" height="11" fill='lightgray'/><rect x="20" y="80" width="11" height="11" fill='lightgray'/><rect x="30" y="80" width="11" height="11" fill='lightgray'/><rect x="40" y="80" width="11" height="11" fill='lightgray'/><rect x="50" y="80" width="11" height="11" fill='red'/><rect x="60" y="80" width="11" height="11" fill='red'/><rect x="70" y="80" width="11" height="11" fill='lightgray'/><rect x="80" y="80" width="11" height="11" fill='lightgray'/><rect x="90" y="80" width="11" height="11" fill='red'/><rect x="100" y="80" width="11" height="11" fill='lightgray'/><rect x="110" y="80" width="11" height="11" fill='lightgray'/><rect x="120" y="80" width="11" height="11" fill='lightgray'/><rect x="130" y="80" width="11" height="11" fill='red'/><rect x="140" y="80" width="11" height="11" fill='lightgray'/><rect x="150" y="80" width="11" height="11" fill='red'/><rect x="160" y="80" width="11" height="11" fill='red'/><rect x="170" y="80" width="11" height="11" fill='lightgray'/><rect x="180" y="80" width="11" height="11" fill='red'/><rect x="190" y="80" width="11" height="11" fill='red'/><rect x="200" y="80" width="11" height="11" fill='brown'/><rect x="210" y="80" width="11" height="11" fill='gray'/><rect x="220" y="80" width="11" height="11" fill='gray'/><rect x="230" y="80" width="11" height="11" fill='black'/><rect x="0" y="90" width="11" height="11" fill='lightgray'/><rect x="10" y="90" width="11" height="11" fill='lightgray'/><rect x="20" y="90" width="11" height="11" fill='lightgray'/><rect x="30" y="90" width="11" height="11" fill='gray'/><rect x="40" y="90" width="11" height="11" fill='red'/><rect x="50" y="90" width="11" height="11" fill='lightgray'/><rect x="60" y="90" width="11" height="11" fill='lightgray'/><rect x="70" y="90" width="11" height="11" fill='red'/><rect x="80" y="90" width="11" height="11" fill='lightgray'/><rect x="90" y="90" width="11" height="11" fill='red'/><rect x="100" y="90" width="11" height="11" fill='gray'/><rect x="110" y="90" width="11" height="11" fill='gray'/><rect x="120" y="90" width="11" height="11" fill='lightgray'/><rect x="130" y="90" width="11" height="11" fill='red'/><rect x="140" y="90" width="11" height="11" fill='lightgray'/><rect x="150" y="90" width="11" height="11" fill='red'/><rect x="160" y="90" width="11" height="11" fill='lightgray'/><rect x="170" y="90" width="11" height="11" fill='lightgray'/><rect x="180" y="90" width="11" height="11" fill='red'/><rect x="190" y="90" width="11" height="11" fill='none'/><rect x="200" y="90" width="11" height="11" fill='red'/><rect x="210" y="90" width="11" height="11" fill='lightgray'/><rect x="220" y="90" width="11" height="11" fill='gray'/><rect x="230" y="90" width="11" height="11" fill='gray'/><rect x="0" y="100" width="11" height="11" fill='white'/><rect x="10" y="100" width="11" height="11" fill='lightgray'/><rect x="20" y="100" width="11" height="11" fill='gray'/><rect x="30" y="100" width="11" height="11" fill='white'/><rect x="40" y="100" width="11" height="11" fill='red'/><rect x="50" y="100" width="11" height="11" fill='lightgray'/><rect x="60" y="100" width="11" height="11" fill='lightgray'/><rect x="70" y="100" width="11" height="11" fill='red'/><rect x="80" y="100" width="11" height="11" fill='lightgray'/><rect x="90" y="100" width="11" height="11" fill='gray'/><rect x="100" y="100" width="11" height="11" fill='brown'/><rect x="110" y="100" width="11" height="11" fill='lightgray'/><rect x="120" y="100" width="11" height="11" fill='red'/><rect x="130" y="100" width="11" height="11" fill='lightgray'/><rect x="140" y="100" width="11" height="11" fill='lightgray'/><rect x="150" y="100" width="11" height="11" fill='brown'/><rect x="160" y="100" width="11" height="11" fill='red'/><rect x="170" y="100" width="11" height="11" fill='lightgray'/><rect x="180" y="100" width="11" height="11" fill='red'/><rect x="190" y="100" width="11" height="11" fill='red'/><rect x="200" y="100" width="11" height="11" fill='gray'/><rect x="210" y="100" width="11" height="11" fill='gray'/><rect x="220" y="100" width="11" height="11" fill='gray'/><rect x="230" y="100" width="11" height="11" fill='rgba(1,1,1,0)'/><rect x="0" y="110" width="11" height="11" fill='lightgray'/><rect x="10" y="110" width="11" height="11" fill='lightgray'/><rect x="20" y="110" width="11" height="11" fill='white'/><rect x="30" y="110" width="11" height="11" fill='lightgray'/><rect x="40" y="110" width="11" height="11" fill='red'/><rect x="50" y="110" width="11" height="11" fill='lightgray'/><rect x="60" y="110" width="11" height="11" fill='gray'/><rect x="70" y="110" width="11" height="11" fill='brown'/><rect x="80" y="110" width="11" height="11" fill='gray'/><rect x="90" y="110" width="11" height="11" fill='lightgray'/><rect x="100" y="110" width="11" height="11" fill='red'/><rect x="110" y="110" width="11" height="11" fill='lightgray'/><rect x="120" y="110" width="11" height="11" fill='brown'/><rect x="130" y="110" width="11" height="11" fill='lightgray'/><rect x="140" y="110" width="11" height="11" fill='lightgray'/><rect x="150" y="110" width="11" height="11" fill='red'/><rect x="160" y="110" width="11" height="11" fill='lightgray'/><rect x="170" y="110" width="11" height="11" fill='lightgray'/><rect x="180" y="110" width="11" height="11" fill='red'/><rect x="190" y="110" width="11" height="11" fill='none'/><rect x="200" y="110" width="11" height="11" fill='brown'/><rect x="210" y="110" width="11" height="11" fill='gray'/><rect x="220" y="110" width="11" height="11" fill='black'/><rect x="230" y="110" width="11" height="11" fill='gray'/><rect x="0" y="120" width="11" height="11" fill='none'/><rect x="10" y="120" width="11" height="11" fill='lightgray'/><rect x="20" y="120" width="11" height="11" fill='lightgray'/><rect x="30" y="120" width="11" height="11" fill='lightgray'/><rect x="40" y="120" width="11" height="11" fill='gray'/><rect x="50" y="120" width="11" height="11" fill='brown'/><rect x="60" y="120" width="11" height="11" fill='red'/><rect x="70" y="120" width="11" height="11" fill='gray'/><rect x="80" y="120" width="11" height="11" fill='lightgray'/><rect x="90" y="120" width="11" height="11" fill='lightgray'/><rect x="100" y="120" width="11" height="11" fill='lightgray'/><rect x="110" y="120" width="11" height="11" fill='brown'/><rect x="120" y="120" width="11" height="11" fill='lightgray'/><rect x="130" y="120" width="11" height="11" fill='lightgray'/><rect x="140" y="120" width="11" height="11" fill='lightgray'/><rect x="150" y="120" width="11" height="11" fill='red'/><rect x="160" y="120" width="11" height="11" fill='brown'/><rect x="170" y="120" width="11" height="11" fill='lightgray'/><rect x="180" y="120" width="11" height="11" fill='red'/><rect x="190" y="120" width="11" height="11" fill='gray'/><rect x="200" y="120" width="11" height="11" fill='black'/><rect x="210" y="120" width="11" height="11" fill='brown'/><rect x="220" y="120" width="11" height="11" fill='gray'/><rect x="230" y="120" width="11" height="11" fill='none'/><rect x="0" y="130" width="11" height="11" fill='none'/><rect x="10" y="130" width="11" height="11" fill='none'/><rect x="20" y="130" width="11" height="11" fill='lightgray'/><rect x="30" y="130" width="11" height="11" fill='gray'/><rect x="40" y="130" width="11" height="11" fill='gray'/><rect x="50" y="130" width="11" height="11" fill='rgba(1,1,1,0)'/><rect x="60" y="130" width="11" height="11" fill='gray'/><rect x="70" y="130" width="11" height="11" fill='black'/><rect x="80" y="130" width="11" height="11" fill='gray'/><rect x="90" y="130" width="11" height="11" fill='gray'/><rect x="100" y="130" width="11" height="11" fill='gray'/><rect x="110" y="130" width="11" height="11" fill='gray'/><rect x="120" y="130" width="11" height="11" fill='gray'/><rect x="130" y="130" width="11" height="11" fill='gray'/><rect x="140" y="130" width="11" height="11" fill='gray'/><rect x="150" y="130" width="11" height="11" fill='gray'/><rect x="160" y="130" width="11" height="11" fill='black'/><rect x="170" y="130" width="11" height="11" fill='gray'/><rect x="180" y="130" width="11" height="11" fill='black'/><rect x="190" y="130" width="11" height="11" fill='gray'/><rect x="200" y="130" width="11" height="11" fill='gray'/><rect x="210" y="130" width="11" height="11" fill='black'/><rect x="220" y="130" width="11" height="11" fill='none'/><rect x="230" y="130" width="11" height="11" fill='none'/></svg>