<svg width="160" height="160" viewBox="0 0 160 160" fill="none" xmlns="http://www.w3.org/2000/svg">



<rect x="80" width="10" height="10" fill="yellow"/>
<rect x="90" width="10" height="10" fill="yellow"/>
<rect x="100" width="10" height="10" fill="yellow"/>

<rect x="70" y="10" width="10" height="10" fill="pink"/>
<rect x="80" y="10" width="10" height="10" fill="red"/>
<rect x="90" y="10" width="10" height="10" fill="yellow"/>
<rect x="100" y="10" width="10" height="10" fill="black"/>
<rect x="110" y="10" width="10" height="10" fill="black"/>


<rect x="50" y="20" width="10" height="10" fill="#DADADA"/>
<rect x="60" y="20" width="10" height="10" fill="black"/>
<rect x="70" y="20" width="10" height="10" fill="pink"/>
<rect x="80" y="20" width="10" height="10" fill="red"/>
<rect x="90" y="20" width="10" height="10" fill="black"/>
<rect x="100" y="20" width="10" height="10" fill="#808040"/>
<rect x="110" y="20" width="10" height="10" fill="#DADADA"/>
<rect x="120" y="20" width="10" height="10" fill="#DADADA"/>

<rect x="40" y="30" width="10" height="10" fill="#DADADA"/>

<rect x="60" y="30" width="10" height="10" fill="#808040"/>
<rect x="70" y="30" width="10" height="10" fill="#880015"/>
<rect x="80" y="30" width="10" height="10" fill="red"/>
<rect x="90" y="30" width="10" height="10" fill="yellow"/>
<rect x="100" y="30" width="10" height="10" fill="yellow"/>

<rect x="120" y="30" width="10" height="10" fill="#DADADA"/>

<rect x="40" y="40" width="10" height="10" fill="grey"/>
<rect x="50" y="40" width="10" height="10" fill="grey"/>
<rect x="60" y="40" width="10" height="10" fill="black"/>
<rect x="70" y="40" width="10" height="10" fill="yellow"/>
<rect x="80" y="40" width="10" height="10" fill="yellow"/>
<rect x="90" y="40" width="10" height="10" fill="yellow"/>
<rect x="100" y="40" width="10" height="10" fill="#DADADA"/>
<rect x="110" y="40" width="10" height="10" fill="#DADADA"/>
<rect x="120" y="40" width="10" height="10" fill="grey"/>

<rect x="50" y="50" width="10" height="10" fill="black"/>
<rect x="60" y="50" width="10" height="10" fill="#FFC90E"/>
<rect x="70" y="50" width="10" height="10" fill="#FFC90E"/>
<rect x="80" y="50" width="10" height="10" fill="yellow"/>
<rect x="90" y="50" width="10" height="10" fill="black"/>
<rect x="100" y="50" width="10" height="10" fill="orange"/>

<rect x="50" y="60" width="10" height="10" fill="black"/>
<rect x="60" y="60" width="10" height="10" fill="yellow"/>
<rect x="70" y="60" width="10" height="10" fill="yellow"/>
<rect x="80" y="60" width="10" height="10" fill="black"/>
<rect x="90" y="60" width="10" height="10" fill="orange"/>

<rect x="60" y="70" width="10" height="10" fill="#DADADA"/>
<rect x="70" y="70" width="10" height="10" fill="black"/>


<rect x="60" y="80" width="10" height="10" fill="grey"/>
<rect x="70" y="80" width="10" height="10" fill="black"/>


<rect x="50" y="90" width="10" height="10" fill="#DADADA"/>
<rect x="60" y="90" width="10" height="10" fill="black"/>

<rect x="50" y="100" width="10" height="10" fill="#AFAEAE"/>
<rect x="60" y="100" width="10" height="10" fill="black"/>

<rect x="10" y="110" width="10" height="10" fill="black"/>
<rect x="20" y="110" width="10" height="10" fill="black"/>
<rect x="30" y="110" width="10" height="10" fill="black"/>
<rect x="40" y="110" width="10" height="10" fill="#DADADA"/>
<rect x="50" y="110" width="10" height="10" fill="black"/>

<rect y="120" width="10" height="10" fill="black"/>
<rect x="10" y="120" width="10" height="10" fill="orange"/>
<rect x="20" y="120" width="10" height="10" fill="yellow"/>
<rect x="30" y="120" width="10" height="10" fill="#DADADA"/>
<rect x="40" y="120" width="10" height="10" fill="grey"/>
<rect x="50" y="120" width="10" height="10" fill="black"/>

<rect y="130" width="10" height="10" fill="black"/>
<rect x="10" y="130" width="10" height="10" fill="yellow"/>
<rect x="20" y="130" width="10" height="10" fill="yellow"/>
<rect x="30" y="130" width="10" height="10" fill="yellow"/>
<rect x="40" y="130" width="10" height="10" fill="orange"/>
<rect x="50" y="130" width="10" height="10" fill="#B97A57"/>

<rect y="140" width="10" height="10" fill="black"/>
<rect x="10" y="140" width="10" height="10" fill="black"/>
<rect x="20" y="140" width="10" height="10" fill="yellow"/>
<rect x="30" y="140" width="10" height="10" fill="yellow"/>
<rect x="40" y="140" width="10" height="10" fill="yellow"/>
<rect x="50" y="140" width="10" height="10" fill="#B97A57"/>

<rect x="30" y="150" width="10" height="10" fill="#B97A57"/>
<rect x="40" y="150" width="10" height="10" fill="#B97A57"/>

</svg>
