<svg width="247" height="19" viewBox="0 0 247 19" fill="none" xmlns="http://www.w3.org/2000/svg">
<path id="mate.zoltan.geza+IT@gmail.com" d="M2.484 15.08C2.28133 15.08 2.11067 15.0107 1.972 14.872C1.83333 14.7333 1.764 14.5627 1.764 14.36V7.496C1.764 7.29333 1.83333 7.12267 1.972 6.984C2.11067 6.83467 2.28133 6.76 2.484 6.76C2.68667 6.76 2.85733 6.83467 2.996 6.984C3.14533 7.12267 3.22 7.29333 3.22 7.496V8.152C3.51867 7.72533 3.876 7.37333 4.292 7.096C4.71867 6.81867 5.268 6.68 5.94 6.68C6.53733 6.68 7.04933 6.84 7.476 7.16C7.90267 7.48 8.20667 7.86933 8.388 8.328C9.04933 7.22933 10.0307 6.68 11.332 6.68C11.9293 6.68 12.4253 6.82933 12.82 7.128C13.2253 7.42667 13.524 7.81067 13.716 8.28C13.908 8.74933 14.004 9.24 14.004 9.752V14.36C14.004 14.5627 13.9293 14.7333 13.78 14.872C13.6413 15.0107 13.4707 15.08 13.268 15.08C13.0653 15.08 12.8947 15.0107 12.756 14.872C12.6173 14.7333 12.548 14.5627 12.548 14.36V10.04C12.548 9.34667 12.4253 8.84 12.18 8.52C11.9347 8.18933 11.5133 8.024 10.916 8.024C10.372 8.024 9.91867 8.168 9.556 8.456C9.204 8.73333 8.88933 9.10133 8.612 9.56V14.36C8.612 14.5627 8.53733 14.7333 8.388 14.872C8.24933 15.0107 8.07867 15.08 7.876 15.08C7.67333 15.08 7.50267 15.0107 7.364 14.872C7.22533 14.7333 7.156 14.5627 7.156 14.36V10.04C7.156 9.34667 7.03333 8.84 6.788 8.52C6.54267 8.18933 6.12133 8.024 5.524 8.024C4.98 8.024 4.52667 8.168 4.164 8.456C3.812 8.73333 3.49733 9.10133 3.22 9.56V14.36C3.22 14.5627 3.14533 14.7333 2.996 14.872C2.85733 15.0107 2.68667 15.08 2.484 15.08ZM18.5315 15.16C18.0622 15.16 17.6248 15.064 17.2195 14.872C16.8248 14.68 16.5102 14.4027 16.2755 14.04C16.0408 13.6667 15.9235 13.24 15.9235 12.76C15.9235 11.9707 16.2328 11.3413 16.8515 10.872C17.4808 10.4027 18.3982 10.168 19.6035 10.168H21.5395V10.04C21.5395 9.336 21.3635 8.82933 21.0115 8.52C20.6702 8.21067 20.1315 8.056 19.3955 8.056C18.9902 8.056 18.6275 8.088 18.3075 8.152C17.9982 8.216 17.6515 8.312 17.2675 8.44C17.1822 8.46133 17.1128 8.472 17.0595 8.472C16.8995 8.472 16.7608 8.41333 16.6435 8.296C16.5262 8.17867 16.4675 8.03467 16.4675 7.864C16.4675 7.576 16.6062 7.37333 16.8835 7.256C17.7902 6.872 18.7128 6.68 19.6515 6.68C20.3875 6.68 21.0062 6.82933 21.5075 7.128C22.0195 7.42667 22.3928 7.816 22.6275 8.296C22.8728 8.76533 22.9955 9.27733 22.9955 9.832V14.36C22.9955 14.5627 22.9208 14.7333 22.7715 14.872C22.6328 15.0107 22.4622 15.08 22.2595 15.08C22.0568 15.08 21.8862 15.0107 21.7475 14.872C21.6088 14.7333 21.5395 14.5627 21.5395 14.36V13.944C20.7502 14.7547 19.7475 15.16 18.5315 15.16ZM19.0755 13.88C19.5448 13.88 19.9982 13.768 20.4355 13.544C20.8728 13.3093 21.2408 13.0213 21.5395 12.68V11.336H19.7955C18.1848 11.336 17.3795 11.7573 17.3795 12.6C17.3795 12.984 17.5075 13.2933 17.7635 13.528C18.0302 13.7627 18.4675 13.88 19.0755 13.88ZM28.0644 15.16C26.507 15.16 25.7284 14.456 25.7284 13.048V8.088H24.5924C24.507 8.088 24.4324 8.06133 24.3684 8.008C24.315 7.944 24.2884 7.86933 24.2884 7.784C24.2884 7.67733 24.3364 7.58667 24.4324 7.512L26.6084 5.384C26.7044 5.288 26.795 5.24 26.8804 5.24C26.9657 5.24 27.035 5.272 27.0884 5.336C27.1524 5.4 27.1844 5.47467 27.1844 5.56V6.84H28.9924C29.1737 6.84 29.323 6.89867 29.4404 7.016C29.5577 7.13333 29.6164 7.28267 29.6164 7.464C29.6164 7.63467 29.5577 7.784 29.4404 7.912C29.323 8.02933 29.1737 8.088 28.9924 8.088H27.1844V12.92C27.1844 13.336 27.2804 13.6027 27.4724 13.72C27.675 13.8267 27.9257 13.88 28.2244 13.88C28.4377 13.88 28.651 13.848 28.8644 13.784C28.907 13.7733 28.9497 13.7627 28.9924 13.752C29.0457 13.7413 29.1097 13.736 29.1844 13.736C29.3337 13.736 29.467 13.7947 29.5844 13.912C29.7017 14.0187 29.7604 14.152 29.7604 14.312C29.7604 14.5573 29.6377 14.744 29.3924 14.872C28.9764 15.064 28.5337 15.16 28.0644 15.16ZM34.8964 15.16C33.595 15.16 32.5764 14.792 31.8404 14.056C31.115 13.3093 30.7524 12.264 30.7524 10.92C30.7524 10.1627 30.891 9.464 31.1684 8.824C31.4457 8.184 31.8724 7.66667 32.4484 7.272C33.0244 6.87733 33.7337 6.68 34.5764 6.68C35.3657 6.68 36.0484 6.86667 36.6244 7.24C37.2004 7.60267 37.6377 8.09333 37.9364 8.712C38.235 9.32 38.3844 9.98667 38.3844 10.712C38.3844 10.9147 38.315 11.0853 38.1764 11.224C38.0484 11.3627 37.8724 11.432 37.6484 11.432H32.2244C32.3097 12.1787 32.587 12.76 33.0564 13.176C33.5257 13.592 34.1817 13.8 35.0244 13.8C35.4724 13.8 35.8617 13.7573 36.1924 13.672C36.5337 13.5867 36.8644 13.464 37.1844 13.304C37.2697 13.2613 37.3657 13.24 37.4724 13.24C37.643 13.24 37.7924 13.2987 37.9204 13.416C38.0484 13.5333 38.1124 13.6827 38.1124 13.864C38.1124 14.0987 37.9737 14.296 37.6964 14.456C37.2804 14.6907 36.8697 14.8667 36.4644 14.984C36.059 15.1013 35.5364 15.16 34.8964 15.16ZM36.9444 10.248C36.9124 9.72533 36.7737 9.288 36.5284 8.936C36.2937 8.584 36.0004 8.328 35.6484 8.168C35.2964 7.99733 34.939 7.912 34.5764 7.912C34.2137 7.912 33.8564 7.99733 33.5044 8.168C33.1524 8.328 32.859 8.584 32.6244 8.936C32.3897 9.288 32.2564 9.72533 32.2244 10.248H36.9444ZM41.0469 15.048C40.8015 15.048 40.5882 14.9627 40.4069 14.792C40.2362 14.6107 40.1509 14.3973 40.1509 14.152V14.056C40.1509 13.8107 40.2362 13.6027 40.4069 13.432C40.5882 13.2507 40.8015 13.16 41.0469 13.16H41.2069C41.4522 13.16 41.6602 13.2507 41.8309 13.432C42.0122 13.6027 42.1029 13.8107 42.1029 14.056V14.152C42.1029 14.3973 42.0122 14.6107 41.8309 14.792C41.6602 14.9627 41.4522 15.048 41.2069 15.048H41.0469ZM44.8511 15C44.5631 15 44.3231 14.9253 44.1311 14.776C43.9391 14.6267 43.8431 14.4187 43.8431 14.152C43.8431 13.9067 43.9285 13.688 44.0991 13.496L48.7071 8.2H44.6591C44.4671 8.2 44.3071 8.136 44.1791 8.008C44.0511 7.88 43.9871 7.72 43.9871 7.528C43.9871 7.336 44.0511 7.176 44.1791 7.048C44.3071 6.90933 44.4671 6.84 44.6591 6.84H49.5071C49.7845 6.84 50.0085 6.92533 50.1791 7.096C50.3498 7.26667 50.4351 7.48533 50.4351 7.752C50.4351 7.99733 50.3605 8.21067 50.2111 8.392L45.7311 13.64H49.8431C50.0351 13.64 50.1951 13.7093 50.3231 13.848C50.4618 13.976 50.5311 14.136 50.5311 14.328C50.5311 14.52 50.4618 14.68 50.3231 14.808C50.1951 14.936 50.0351 15 49.8431 15H44.8511ZM56.0359 15.16C55.2145 15.16 54.4945 14.984 53.8759 14.632C53.2572 14.28 52.7772 13.784 52.4359 13.144C52.1052 12.4933 51.9399 11.752 51.9399 10.92C51.9399 10.088 52.1052 9.352 52.4359 8.712C52.7772 8.06133 53.2572 7.56 53.8759 7.208C54.4945 6.856 55.2145 6.68 56.0359 6.68C56.8465 6.68 57.5612 6.856 58.1799 7.208C58.7985 7.56 59.2785 8.06133 59.6199 8.712C59.9612 9.352 60.1319 10.088 60.1319 10.92C60.1319 11.752 59.9612 12.4933 59.6199 13.144C59.2785 13.784 58.7985 14.28 58.1799 14.632C57.5612 14.984 56.8465 15.16 56.0359 15.16ZM56.0359 13.832C56.4732 13.832 56.8892 13.7307 57.2839 13.528C57.6892 13.3253 58.0199 13.0053 58.2759 12.568C58.5425 12.1307 58.6759 11.576 58.6759 10.904C58.6759 10.2427 58.5425 9.69333 58.2759 9.256C58.0199 8.81867 57.6892 8.504 57.2839 8.312C56.8892 8.10933 56.4732 8.008 56.0359 8.008C55.5879 8.008 55.1612 8.10933 54.7559 8.312C54.3612 8.504 54.0359 8.81867 53.7799 9.256C53.5239 9.69333 53.3959 10.2427 53.3959 10.904C53.3959 11.576 53.5239 12.1307 53.7799 12.568C54.0359 13.0053 54.3612 13.3253 54.7559 13.528C55.1612 13.7307 55.5879 13.832 56.0359 13.832ZM62.8903 15.08C62.6876 15.08 62.5169 15.0107 62.3783 14.872C62.2396 14.7333 62.1703 14.5627 62.1703 14.36V3.976C62.1703 3.77333 62.2396 3.60267 62.3783 3.464C62.5169 3.31467 62.6876 3.24 62.8903 3.24C63.1036 3.24 63.2796 3.30933 63.4183 3.448C63.5569 3.58667 63.6263 3.76267 63.6263 3.976V14.36C63.6263 14.5627 63.5516 14.7333 63.4023 14.872C63.2636 15.0107 63.0929 15.08 62.8903 15.08ZM68.9706 15.16C67.4133 15.16 66.6346 14.456 66.6346 13.048V8.088H65.4986C65.4133 8.088 65.3386 8.06133 65.2746 8.008C65.2213 7.944 65.1946 7.86933 65.1946 7.784C65.1946 7.67733 65.2426 7.58667 65.3386 7.512L67.5146 5.384C67.6106 5.288 67.7013 5.24 67.7866 5.24C67.872 5.24 67.9413 5.272 67.9946 5.336C68.0586 5.4 68.0906 5.47467 68.0906 5.56V6.84H69.8986C70.08 6.84 70.2293 6.89867 70.3466 7.016C70.464 7.13333 70.5226 7.28267 70.5226 7.464C70.5226 7.63467 70.464 7.784 70.3466 7.912C70.2293 8.02933 70.08 8.088 69.8986 8.088H68.0906V12.92C68.0906 13.336 68.1866 13.6027 68.3786 13.72C68.5813 13.8267 68.832 13.88 69.1306 13.88C69.344 13.88 69.5573 13.848 69.7706 13.784C69.8133 13.7733 69.856 13.7627 69.8986 13.752C69.952 13.7413 70.016 13.736 70.0906 13.736C70.24 13.736 70.3733 13.7947 70.4906 13.912C70.608 14.0187 70.6666 14.152 70.6666 14.312C70.6666 14.5573 70.544 14.744 70.2986 14.872C69.8826 15.064 69.44 15.16 68.9706 15.16ZM74.344 15.16C73.8747 15.16 73.4373 15.064 73.032 14.872C72.6373 14.68 72.3227 14.4027 72.088 14.04C71.8533 13.6667 71.736 13.24 71.736 12.76C71.736 11.9707 72.0453 11.3413 72.664 10.872C73.2933 10.4027 74.2107 10.168 75.416 10.168H77.352V10.04C77.352 9.336 77.176 8.82933 76.824 8.52C76.4827 8.21067 75.944 8.056 75.208 8.056C74.8027 8.056 74.44 8.088 74.12 8.152C73.8107 8.216 73.464 8.312 73.08 8.44C72.9947 8.46133 72.9253 8.472 72.872 8.472C72.712 8.472 72.5733 8.41333 72.456 8.296C72.3387 8.17867 72.28 8.03467 72.28 7.864C72.28 7.576 72.4187 7.37333 72.696 7.256C73.6027 6.872 74.5253 6.68 75.464 6.68C76.2 6.68 76.8187 6.82933 77.32 7.128C77.832 7.42667 78.2053 7.816 78.44 8.296C78.6853 8.76533 78.808 9.27733 78.808 9.832V14.36C78.808 14.5627 78.7333 14.7333 78.584 14.872C78.4453 15.0107 78.2747 15.08 78.072 15.08C77.8693 15.08 77.6987 15.0107 77.56 14.872C77.4213 14.7333 77.352 14.5627 77.352 14.36V13.944C76.5627 14.7547 75.56 15.16 74.344 15.16ZM74.888 13.88C75.3573 13.88 75.8107 13.768 76.248 13.544C76.6853 13.3093 77.0533 13.0213 77.352 12.68V11.336H75.608C73.9973 11.336 73.192 11.7573 73.192 12.6C73.192 12.984 73.32 13.2933 73.576 13.528C73.8427 13.7627 74.28 13.88 74.888 13.88ZM81.9684 15.08C81.7657 15.08 81.595 15.0107 81.4564 14.872C81.3177 14.7333 81.2484 14.5627 81.2484 14.36V7.496C81.2484 7.29333 81.3177 7.12267 81.4564 6.984C81.595 6.83467 81.7657 6.76 81.9684 6.76C82.171 6.76 82.3417 6.83467 82.4804 6.984C82.6297 7.12267 82.7044 7.29333 82.7044 7.496V8.152C83.1097 7.704 83.547 7.34667 84.0164 7.08C84.4857 6.81333 85.0404 6.68 85.6804 6.68C86.267 6.68 86.7737 6.81867 87.2004 7.096C87.6377 7.37333 87.9684 7.752 88.1924 8.232C88.427 8.712 88.5444 9.24 88.5444 9.816V14.36C88.5444 14.5627 88.4697 14.7333 88.3204 14.872C88.1817 15.0107 88.011 15.08 87.8084 15.08C87.6057 15.08 87.435 15.0107 87.2964 14.872C87.1577 14.7333 87.0884 14.5627 87.0884 14.36V9.976C87.0884 8.67467 86.5017 8.024 85.3284 8.024C84.795 8.024 84.315 8.16267 83.8884 8.44C83.4724 8.71733 83.0777 9.09067 82.7044 9.56V14.36C82.7044 14.5627 82.6297 14.7333 82.4804 14.872C82.3417 15.0107 82.171 15.08 81.9684 15.08ZM91.7344 15.048C91.489 15.048 91.2757 14.9627 91.0944 14.792C90.9237 14.6107 90.8384 14.3973 90.8384 14.152V14.056C90.8384 13.8107 90.9237 13.6027 91.0944 13.432C91.2757 13.2507 91.489 13.16 91.7344 13.16H91.8944C92.1397 13.16 92.3477 13.2507 92.5184 13.432C92.6997 13.6027 92.7904 13.8107 92.7904 14.056V14.152C92.7904 14.3973 92.6997 14.6107 92.5184 14.792C92.3477 14.9627 92.1397 15.048 91.8944 15.048H91.7344ZM98.8064 18.84C98.1877 18.84 97.5637 18.76 96.9344 18.6C96.305 18.44 95.7877 18.2427 95.3824 18.008C95.1904 17.8907 95.0944 17.704 95.0944 17.448C95.0944 17.2773 95.153 17.1227 95.2704 16.984C95.3984 16.856 95.553 16.792 95.7344 16.792C95.8197 16.792 95.9157 16.8133 96.0224 16.856C96.833 17.2613 97.713 17.464 98.6624 17.464C100.294 17.464 101.11 16.5947 101.11 14.856V13.784C100.353 14.5947 99.441 15 98.3744 15C97.745 15 97.1317 14.8453 96.5344 14.536C95.9477 14.216 95.4624 13.7467 95.0784 13.128C94.6944 12.4987 94.5024 11.736 94.5024 10.84C94.5024 9.944 94.6944 9.18667 95.0784 8.568C95.4624 7.93867 95.9477 7.46933 96.5344 7.16C97.1317 6.84 97.745 6.68 98.3744 6.68C99.441 6.68 100.353 7.08533 101.11 7.896V7.496C101.11 7.29333 101.18 7.12267 101.318 6.984C101.457 6.83467 101.628 6.76 101.83 6.76C102.033 6.76 102.204 6.83467 102.342 6.984C102.492 7.12267 102.566 7.29333 102.566 7.496V14.648C102.566 15.992 102.241 17.0267 101.59 17.752C100.94 18.4773 100.012 18.84 98.8064 18.84ZM98.6784 13.672C99.1797 13.672 99.6224 13.5653 100.006 13.352C100.39 13.1387 100.758 12.8507 101.11 12.488V9.192C100.758 8.82933 100.39 8.54133 100.006 8.328C99.6224 8.11467 99.1797 8.008 98.6784 8.008C97.8784 8.008 97.2224 8.25333 96.7104 8.744C96.209 9.224 95.9584 9.92267 95.9584 10.84C95.9584 11.7573 96.209 12.4613 96.7104 12.952C97.2224 13.432 97.8784 13.672 98.6784 13.672ZM108.74 15.16C107.439 15.16 106.42 14.792 105.684 14.056C104.959 13.3093 104.596 12.264 104.596 10.92C104.596 10.1627 104.735 9.464 105.012 8.824C105.289 8.184 105.716 7.66667 106.292 7.272C106.868 6.87733 107.577 6.68 108.42 6.68C109.209 6.68 109.892 6.86667 110.468 7.24C111.044 7.60267 111.481 8.09333 111.78 8.712C112.079 9.32 112.228 9.98667 112.228 10.712C112.228 10.9147 112.159 11.0853 112.02 11.224C111.892 11.3627 111.716 11.432 111.492 11.432H106.068C106.153 12.1787 106.431 12.76 106.9 13.176C107.369 13.592 108.025 13.8 108.868 13.8C109.316 13.8 109.705 13.7573 110.036 13.672C110.377 13.5867 110.708 13.464 111.028 13.304C111.113 13.2613 111.209 13.24 111.316 13.24C111.487 13.24 111.636 13.2987 111.764 13.416C111.892 13.5333 111.956 13.6827 111.956 13.864C111.956 14.0987 111.817 14.296 111.54 14.456C111.124 14.6907 110.713 14.8667 110.308 14.984C109.903 15.1013 109.38 15.16 108.74 15.16ZM110.788 10.248C110.756 9.72533 110.617 9.288 110.372 8.936C110.137 8.584 109.844 8.328 109.492 8.168C109.14 7.99733 108.783 7.912 108.42 7.912C108.057 7.912 107.7 7.99733 107.348 8.168C106.996 8.328 106.703 8.584 106.468 8.936C106.233 9.288 106.1 9.72533 106.068 10.248H110.788ZM114.539 15C114.251 15 114.011 14.9253 113.819 14.776C113.627 14.6267 113.531 14.4187 113.531 14.152C113.531 13.9067 113.616 13.688 113.787 13.496L118.395 8.2H114.347C114.155 8.2 113.995 8.136 113.867 8.008C113.739 7.88 113.675 7.72 113.675 7.528C113.675 7.336 113.739 7.176 113.867 7.048C113.995 6.90933 114.155 6.84 114.347 6.84H119.195C119.472 6.84 119.696 6.92533 119.867 7.096C120.037 7.26667 120.123 7.48533 120.123 7.752C120.123 7.99733 120.048 8.21067 119.899 8.392L115.419 13.64H119.531C119.723 13.64 119.883 13.7093 120.011 13.848C120.149 13.976 120.219 14.136 120.219 14.328C120.219 14.52 120.149 14.68 120.011 14.808C119.883 14.936 119.723 15 119.531 15H114.539ZM124.203 15.16C123.734 15.16 123.297 15.064 122.891 14.872C122.497 14.68 122.182 14.4027 121.947 14.04C121.713 13.6667 121.595 13.24 121.595 12.76C121.595 11.9707 121.905 11.3413 122.523 10.872C123.153 10.4027 124.07 10.168 125.275 10.168H127.211V10.04C127.211 9.336 127.035 8.82933 126.683 8.52C126.342 8.21067 125.803 8.056 125.067 8.056C124.662 8.056 124.299 8.088 123.979 8.152C123.67 8.216 123.323 8.312 122.939 8.44C122.854 8.46133 122.785 8.472 122.731 8.472C122.571 8.472 122.433 8.41333 122.315 8.296C122.198 8.17867 122.139 8.03467 122.139 7.864C122.139 7.576 122.278 7.37333 122.555 7.256C123.462 6.872 124.385 6.68 125.323 6.68C126.059 6.68 126.678 6.82933 127.179 7.128C127.691 7.42667 128.065 7.816 128.299 8.296C128.545 8.76533 128.667 9.27733 128.667 9.832V14.36C128.667 14.5627 128.593 14.7333 128.443 14.872C128.305 15.0107 128.134 15.08 127.931 15.08C127.729 15.08 127.558 15.0107 127.419 14.872C127.281 14.7333 127.211 14.5627 127.211 14.36V13.944C126.422 14.7547 125.419 15.16 124.203 15.16ZM124.747 13.88C125.217 13.88 125.67 13.768 126.107 13.544C126.545 13.3093 126.913 13.0213 127.211 12.68V11.336H125.467C123.857 11.336 123.051 11.7573 123.051 12.6C123.051 12.984 123.179 13.2933 123.435 13.528C123.702 13.7627 124.139 13.88 124.747 13.88ZM134.34 13.336C134.169 13.336 134.02 13.2773 133.892 13.16C133.774 13.032 133.716 12.8827 133.716 12.712V10.088H131.092C130.921 10.088 130.777 10.0293 130.66 9.912C130.542 9.79467 130.484 9.65067 130.484 9.48C130.484 9.29867 130.542 9.14933 130.66 9.032C130.777 8.91467 130.921 8.856 131.092 8.856H133.716V6.232C133.716 6.05067 133.774 5.90133 133.892 5.784C134.02 5.66667 134.169 5.608 134.34 5.608C134.521 5.608 134.67 5.66667 134.788 5.784C134.905 5.90133 134.964 6.05067 134.964 6.232V8.856H137.572C137.753 8.856 137.902 8.91467 138.02 9.032C138.137 9.14933 138.196 9.29867 138.196 9.48C138.196 9.65067 138.137 9.79467 138.02 9.912C137.902 10.0293 137.753 10.088 137.572 10.088H134.964V12.712C134.964 12.8827 134.905 13.032 134.788 13.16C134.67 13.2773 134.521 13.336 134.34 13.336ZM141.1 15.08C140.897 15.08 140.727 15.0107 140.588 14.872C140.449 14.7333 140.38 14.5627 140.38 14.36V4.488C140.38 4.28533 140.449 4.11467 140.588 3.976C140.727 3.82667 140.897 3.752 141.1 3.752C141.303 3.752 141.473 3.82667 141.612 3.976C141.761 4.11467 141.836 4.28533 141.836 4.488V14.36C141.836 14.5627 141.761 14.7333 141.612 14.872C141.473 15.0107 141.303 15.08 141.1 15.08ZM148.255 15.08C148.052 15.08 147.881 15.0107 147.743 14.872C147.604 14.7333 147.535 14.5627 147.535 14.36V5.192H144.271C144.079 5.192 143.919 5.128 143.791 5C143.663 4.872 143.599 4.712 143.599 4.52C143.599 4.328 143.663 4.168 143.791 4.04C143.919 3.90133 144.079 3.832 144.271 3.832H152.239C152.431 3.832 152.591 3.90133 152.719 4.04C152.857 4.168 152.927 4.328 152.927 4.52C152.927 4.712 152.857 4.872 152.719 5C152.591 5.128 152.431 5.192 152.239 5.192H148.991V14.36C148.991 14.5627 148.916 14.7333 148.767 14.872C148.628 15.0107 148.457 15.08 148.255 15.08ZM159.056 16.328C157.947 16.328 156.966 16.072 156.112 15.56C155.259 15.0587 154.598 14.3867 154.128 13.544C153.67 12.6907 153.44 11.7787 153.44 10.808C153.44 9.60267 153.75 8.47733 154.368 7.432C154.987 6.38667 155.814 5.55467 156.848 4.936C157.894 4.30667 159.019 3.992 160.224 3.992C161.323 3.992 162.336 4.232 163.264 4.712C164.203 5.18133 164.944 5.83733 165.488 6.68C166.043 7.512 166.32 8.46133 166.32 9.528C166.32 10.2 166.214 10.8347 166 11.432C165.798 12.0293 165.472 12.52 165.024 12.904C164.587 13.288 164.027 13.48 163.344 13.48C162.811 13.48 162.395 13.3627 162.096 13.128C161.798 12.8933 161.616 12.616 161.552 12.296C161.222 12.7013 160.827 13.0053 160.368 13.208C159.91 13.4 159.424 13.496 158.912 13.496C158.059 13.496 157.392 13.2347 156.912 12.712C156.432 12.1893 156.192 11.512 156.192 10.68C156.192 9.88 156.368 9.18667 156.72 8.6C157.083 8.01333 157.552 7.56533 158.128 7.256C158.715 6.94667 159.334 6.792 159.984 6.792C160.784 6.792 161.467 7.064 162.032 7.608L162.08 7.336C162.102 7.19733 162.166 7.08 162.272 6.984C162.39 6.888 162.523 6.84 162.672 6.84C162.832 6.84 162.966 6.89867 163.072 7.016C163.19 7.12267 163.248 7.26133 163.248 7.432L163.232 7.608L162.704 10.648C162.63 11.0427 162.592 11.3893 162.592 11.688C162.592 11.9867 162.656 12.2373 162.784 12.44C162.923 12.632 163.126 12.728 163.392 12.728C164.054 12.728 164.56 12.44 164.912 11.864C165.275 11.288 165.456 10.5093 165.456 9.528C165.456 8.54667 165.206 7.704 164.704 7C164.203 6.28533 163.547 5.74667 162.736 5.384C161.936 5.02133 161.099 4.84 160.224 4.84C159.168 4.84 158.182 5.112 157.264 5.656C156.358 6.2 155.632 6.93067 155.088 7.848C154.544 8.76533 154.272 9.752 154.272 10.808C154.272 11.5973 154.459 12.3547 154.832 13.08C155.216 13.7947 155.766 14.376 156.48 14.824C157.206 15.272 158.064 15.496 159.056 15.496C159.707 15.496 160.272 15.432 160.752 15.304C161.232 15.1867 161.782 15.0053 162.4 14.76C162.464 14.7387 162.523 14.728 162.576 14.728C162.694 14.728 162.79 14.7653 162.864 14.84C162.939 14.9147 162.976 15.0053 162.976 15.112C162.976 15.1867 162.955 15.256 162.912 15.32C162.87 15.3947 162.816 15.448 162.752 15.48C161.622 16.0453 160.39 16.328 159.056 16.328ZM159.264 12.392C160.566 12.392 161.344 11.6453 161.6 10.152L161.856 8.664C161.387 8.17333 160.784 7.928 160.048 7.928C159.59 7.928 159.158 8.02933 158.752 8.232C158.358 8.43467 158.038 8.73333 157.792 9.128C157.547 9.512 157.424 9.976 157.424 10.52C157.424 11.1387 157.595 11.608 157.936 11.928C158.278 12.2373 158.72 12.392 159.264 12.392ZM172.103 18.84C171.485 18.84 170.861 18.76 170.231 18.6C169.602 18.44 169.085 18.2427 168.679 18.008C168.487 17.8907 168.391 17.704 168.391 17.448C168.391 17.2773 168.45 17.1227 168.567 16.984C168.695 16.856 168.85 16.792 169.031 16.792C169.117 16.792 169.213 16.8133 169.319 16.856C170.13 17.2613 171.01 17.464 171.959 17.464C173.591 17.464 174.407 16.5947 174.407 14.856V13.784C173.65 14.5947 172.738 15 171.671 15C171.042 15 170.429 14.8453 169.831 14.536C169.245 14.216 168.759 13.7467 168.375 13.128C167.991 12.4987 167.799 11.736 167.799 10.84C167.799 9.944 167.991 9.18667 168.375 8.568C168.759 7.93867 169.245 7.46933 169.831 7.16C170.429 6.84 171.042 6.68 171.671 6.68C172.738 6.68 173.65 7.08533 174.407 7.896V7.496C174.407 7.29333 174.477 7.12267 174.615 6.984C174.754 6.83467 174.925 6.76 175.127 6.76C175.33 6.76 175.501 6.83467 175.639 6.984C175.789 7.12267 175.863 7.29333 175.863 7.496V14.648C175.863 15.992 175.538 17.0267 174.887 17.752C174.237 18.4773 173.309 18.84 172.103 18.84ZM171.975 13.672C172.477 13.672 172.919 13.5653 173.303 13.352C173.687 13.1387 174.055 12.8507 174.407 12.488V9.192C174.055 8.82933 173.687 8.54133 173.303 8.328C172.919 8.11467 172.477 8.008 171.975 8.008C171.175 8.008 170.519 8.25333 170.007 8.744C169.506 9.224 169.255 9.92267 169.255 10.84C169.255 11.7573 169.506 12.4613 170.007 12.952C170.519 13.432 171.175 13.672 171.975 13.672ZM179.109 15.08C178.906 15.08 178.736 15.0107 178.597 14.872C178.458 14.7333 178.389 14.5627 178.389 14.36V7.496C178.389 7.29333 178.458 7.12267 178.597 6.984C178.736 6.83467 178.906 6.76 179.109 6.76C179.312 6.76 179.482 6.83467 179.621 6.984C179.77 7.12267 179.845 7.29333 179.845 7.496V8.152C180.144 7.72533 180.501 7.37333 180.917 7.096C181.344 6.81867 181.893 6.68 182.565 6.68C183.162 6.68 183.674 6.84 184.101 7.16C184.528 7.48 184.832 7.86933 185.013 8.328C185.674 7.22933 186.656 6.68 187.957 6.68C188.554 6.68 189.05 6.82933 189.445 7.128C189.85 7.42667 190.149 7.81067 190.341 8.28C190.533 8.74933 190.629 9.24 190.629 9.752V14.36C190.629 14.5627 190.554 14.7333 190.405 14.872C190.266 15.0107 190.096 15.08 189.893 15.08C189.69 15.08 189.52 15.0107 189.381 14.872C189.242 14.7333 189.173 14.5627 189.173 14.36V10.04C189.173 9.34667 189.05 8.84 188.805 8.52C188.56 8.18933 188.138 8.024 187.541 8.024C186.997 8.024 186.544 8.168 186.181 8.456C185.829 8.73333 185.514 9.10133 185.237 9.56V14.36C185.237 14.5627 185.162 14.7333 185.013 14.872C184.874 15.0107 184.704 15.08 184.501 15.08C184.298 15.08 184.128 15.0107 183.989 14.872C183.85 14.7333 183.781 14.5627 183.781 14.36V10.04C183.781 9.34667 183.658 8.84 183.413 8.52C183.168 8.18933 182.746 8.024 182.149 8.024C181.605 8.024 181.152 8.168 180.789 8.456C180.437 8.73333 180.122 9.10133 179.845 9.56V14.36C179.845 14.5627 179.77 14.7333 179.621 14.872C179.482 15.0107 179.312 15.08 179.109 15.08ZM195.157 15.16C194.687 15.16 194.25 15.064 193.845 14.872C193.45 14.68 193.135 14.4027 192.901 14.04C192.666 13.6667 192.549 13.24 192.549 12.76C192.549 11.9707 192.858 11.3413 193.477 10.872C194.106 10.4027 195.023 10.168 196.229 10.168H198.165V10.04C198.165 9.336 197.989 8.82933 197.637 8.52C197.295 8.21067 196.757 8.056 196.021 8.056C195.615 8.056 195.253 8.088 194.933 8.152C194.623 8.216 194.277 8.312 193.893 8.44C193.807 8.46133 193.738 8.472 193.685 8.472C193.525 8.472 193.386 8.41333 193.269 8.296C193.151 8.17867 193.093 8.03467 193.093 7.864C193.093 7.576 193.231 7.37333 193.509 7.256C194.415 6.872 195.338 6.68 196.277 6.68C197.013 6.68 197.631 6.82933 198.133 7.128C198.645 7.42667 199.018 7.816 199.253 8.296C199.498 8.76533 199.621 9.27733 199.621 9.832V14.36C199.621 14.5627 199.546 14.7333 199.397 14.872C199.258 15.0107 199.087 15.08 198.885 15.08C198.682 15.08 198.511 15.0107 198.373 14.872C198.234 14.7333 198.165 14.5627 198.165 14.36V13.944C197.375 14.7547 196.373 15.16 195.157 15.16ZM195.701 13.88C196.17 13.88 196.623 13.768 197.061 13.544C197.498 13.3093 197.866 13.0213 198.165 12.68V11.336H196.421C194.81 11.336 194.005 11.7573 194.005 12.6C194.005 12.984 194.133 13.2933 194.389 13.528C194.655 13.7627 195.093 13.88 195.701 13.88ZM202.749 5.176C202.525 5.176 202.333 5.096 202.173 4.936C202.013 4.776 201.933 4.584 201.933 4.36V4.296C201.933 4.072 202.013 3.88 202.173 3.72C202.333 3.56 202.525 3.48 202.749 3.48H202.845C203.069 3.48 203.261 3.56 203.421 3.72C203.581 3.88 203.661 4.072 203.661 4.296V4.36C203.661 4.584 203.581 4.776 203.421 4.936C203.261 5.096 203.069 5.176 202.845 5.176H202.749ZM202.781 15.08C202.578 15.08 202.408 15.0107 202.269 14.872C202.13 14.7333 202.061 14.5627 202.061 14.36V7.496C202.061 7.29333 202.13 7.12267 202.269 6.984C202.408 6.83467 202.578 6.76 202.781 6.76C202.994 6.76 203.17 6.82933 203.309 6.968C203.448 7.10667 203.517 7.28267 203.517 7.496V14.36C203.517 14.5627 203.442 14.7333 203.293 14.872C203.154 15.0107 202.984 15.08 202.781 15.08ZM206.765 15.08C206.563 15.08 206.392 15.0107 206.253 14.872C206.115 14.7333 206.045 14.5627 206.045 14.36V3.976C206.045 3.77333 206.115 3.60267 206.253 3.464C206.392 3.31467 206.563 3.24 206.765 3.24C206.979 3.24 207.155 3.30933 207.293 3.448C207.432 3.58667 207.501 3.76267 207.501 3.976V14.36C207.501 14.5627 207.427 14.7333 207.277 14.872C207.139 15.0107 206.968 15.08 206.765 15.08ZM210.766 15.048C210.52 15.048 210.307 14.9627 210.126 14.792C209.955 14.6107 209.87 14.3973 209.87 14.152V14.056C209.87 13.8107 209.955 13.6027 210.126 13.432C210.307 13.2507 210.52 13.16 210.766 13.16H210.926C211.171 13.16 211.379 13.2507 211.55 13.432C211.731 13.6027 211.822 13.8107 211.822 14.056V14.152C211.822 14.3973 211.731 14.6107 211.55 14.792C211.379 14.9627 211.171 15.048 210.926 15.048H210.766ZM217.806 15.16C217.038 15.16 216.328 14.9893 215.678 14.648C215.027 14.3067 214.504 13.816 214.11 13.176C213.726 12.536 213.534 11.784 213.534 10.92C213.534 10.056 213.726 9.304 214.11 8.664C214.504 8.024 215.027 7.53333 215.678 7.192C216.328 6.85067 217.038 6.68 217.806 6.68C218.371 6.68 218.856 6.75467 219.262 6.904C219.678 7.04267 220.062 7.224 220.414 7.448C220.627 7.58667 220.734 7.77333 220.734 8.008C220.734 8.168 220.67 8.31733 220.542 8.456C220.424 8.584 220.286 8.648 220.126 8.648C220.008 8.648 219.891 8.616 219.774 8.552C219.422 8.37067 219.118 8.24267 218.862 8.168C218.616 8.08267 218.307 8.04 217.934 8.04C217.016 8.04 216.296 8.30667 215.774 8.84C215.251 9.36267 214.99 10.056 214.99 10.92C214.99 11.784 215.251 12.4827 215.774 13.016C216.296 13.5387 217.016 13.8 217.934 13.8C218.307 13.8 218.616 13.7627 218.862 13.688C219.118 13.6027 219.422 13.4693 219.774 13.288C219.891 13.224 220.008 13.192 220.126 13.192C220.286 13.192 220.424 13.2613 220.542 13.4C220.67 13.528 220.734 13.672 220.734 13.832C220.734 14.0667 220.627 14.2533 220.414 14.392C220.062 14.616 219.678 14.8027 219.262 14.952C218.856 15.0907 218.371 15.16 217.806 15.16ZM226.098 15.16C225.277 15.16 224.557 14.984 223.938 14.632C223.32 14.28 222.84 13.784 222.498 13.144C222.168 12.4933 222.002 11.752 222.002 10.92C222.002 10.088 222.168 9.352 222.498 8.712C222.84 8.06133 223.32 7.56 223.938 7.208C224.557 6.856 225.277 6.68 226.098 6.68C226.909 6.68 227.624 6.856 228.242 7.208C228.861 7.56 229.341 8.06133 229.682 8.712C230.024 9.352 230.194 10.088 230.194 10.92C230.194 11.752 230.024 12.4933 229.682 13.144C229.341 13.784 228.861 14.28 228.242 14.632C227.624 14.984 226.909 15.16 226.098 15.16ZM226.098 13.832C226.536 13.832 226.952 13.7307 227.346 13.528C227.752 13.3253 228.082 13.0053 228.338 12.568C228.605 12.1307 228.738 11.576 228.738 10.904C228.738 10.2427 228.605 9.69333 228.338 9.256C228.082 8.81867 227.752 8.504 227.346 8.312C226.952 8.10933 226.536 8.008 226.098 8.008C225.65 8.008 225.224 8.10933 224.818 8.312C224.424 8.504 224.098 8.81867 223.842 9.256C223.586 9.69333 223.458 10.2427 223.458 10.904C223.458 11.576 223.586 12.1307 223.842 12.568C224.098 13.0053 224.424 13.3253 224.818 13.528C225.224 13.7307 225.65 13.832 226.098 13.832ZM232.953 15.08C232.75 15.08 232.579 15.0107 232.441 14.872C232.302 14.7333 232.233 14.5627 232.233 14.36V7.496C232.233 7.29333 232.302 7.12267 232.441 6.984C232.579 6.83467 232.75 6.76 232.953 6.76C233.155 6.76 233.326 6.83467 233.465 6.984C233.614 7.12267 233.689 7.29333 233.689 7.496V8.152C233.987 7.72533 234.345 7.37333 234.761 7.096C235.187 6.81867 235.737 6.68 236.409 6.68C237.006 6.68 237.518 6.84 237.945 7.16C238.371 7.48 238.675 7.86933 238.857 8.328C239.518 7.22933 240.499 6.68 241.801 6.68C242.398 6.68 242.894 6.82933 243.289 7.128C243.694 7.42667 243.993 7.81067 244.185 8.28C244.377 8.74933 244.473 9.24 244.473 9.752V14.36C244.473 14.5627 244.398 14.7333 244.249 14.872C244.11 15.0107 243.939 15.08 243.737 15.08C243.534 15.08 243.363 15.0107 243.225 14.872C243.086 14.7333 243.017 14.5627 243.017 14.36V10.04C243.017 9.34667 242.894 8.84 242.649 8.52C242.403 8.18933 241.982 8.024 241.385 8.024C240.841 8.024 240.387 8.168 240.025 8.456C239.673 8.73333 239.358 9.10133 239.081 9.56V14.36C239.081 14.5627 239.006 14.7333 238.857 14.872C238.718 15.0107 238.547 15.08 238.345 15.08C238.142 15.08 237.971 15.0107 237.833 14.872C237.694 14.7333 237.625 14.5627 237.625 14.36V10.04C237.625 9.34667 237.502 8.84 237.257 8.52C237.011 8.18933 236.59 8.024 235.993 8.024C235.449 8.024 234.995 8.168 234.633 8.456C234.281 8.73333 233.966 9.10133 233.689 9.56V14.36C233.689 14.5627 233.614 14.7333 233.465 14.872C233.326 15.0107 233.155 15.08 232.953 15.08Z" fill="black"/>
</svg>
