<svg width="260" height="520" viewBox="0 0 260 520" fill="none" xmlns="http://www.w3.org/2000/svg">
<path d="M88 269C90.755 269 95.3351 271.031 97.5556 272.444C99.1013 273.428 101.377 273.918 103 274.778C104.182 275.404 105.673 275.926 107 276C110.084 276.171 113.17 277 116.5 277C120.552 277 124.805 273.839 129 273" stroke="#FE1919" stroke-opacity="0.8" stroke-width="5" stroke-linecap="round"/>
<path d="M104 264C112.048 264.805 119.516 264 127.556 264C131.363 264 135.417 264.542 139 263.222C140.724 262.587 144.013 265 146 265" stroke="#FE1919" stroke-opacity="0.8" stroke-width="5" stroke-linecap="round"/>
<path d="M186 247C194.985 246.501 206.254 234.119 211 227" stroke="#FE1919" stroke-opacity="0.8" stroke-width="5" stroke-linecap="round"/>
<path d="M200 227C204.511 222.489 208.43 218.281 210 212" stroke="#FE1919" stroke-opacity="0.8" stroke-width="5" stroke-linecap="round"/>
<path d="M210 205C211.77 201.349 210.221 199.781 211.222 196.778C212.041 194.322 213.861 192.279 215 190" stroke="#FE1919" stroke-opacity="0.8" stroke-width="5" stroke-linecap="round"/>
<path d="M214 170C214.301 163.676 219.344 152.344 214 147" stroke="#FE1919" stroke-opacity="0.8" stroke-width="5" stroke-linecap="round"/>
<path d="M31 148C28.2919 147.661 28.6852 135.148 29.2222 133C30.3263 128.584 36.7891 121.404 41 120" stroke="#FE1919" stroke-opacity="0.8" stroke-width="5" stroke-linecap="round"/>
<path d="M36 127C40.7976 125.858 45.3937 123.706 50 122" stroke="#FE1919" stroke-opacity="0.8" stroke-width="5" stroke-linecap="round"/>
<path d="M46 120C51.3363 118.475 57.0815 123.36 62 125" stroke="#FE1919" stroke-opacity="0.8" stroke-width="5" stroke-linecap="round"/>
<path d="M63 121C65.6966 121.93 68.3384 122.976 71 124" stroke="#FE1919" stroke-opacity="0.8" stroke-width="5" stroke-linecap="round"/>
<path d="M79 124C81.4897 124.534 83.7124 125.944 86 127" stroke="#FE1919" stroke-opacity="0.8" stroke-width="5" stroke-linecap="round"/>
<path d="M138 130C142.477 125.811 147.367 122.015 152 118" stroke="#FE1919" stroke-opacity="0.8" stroke-width="5" stroke-linecap="round"/>
<path d="M162 125C167.261 123.312 172.555 121.907 178 121" stroke="#FE1919" stroke-opacity="0.8" stroke-width="5" stroke-linecap="round"/>
<path d="M192 128C193.993 129.772 197.476 129 200 129" stroke="#FE1919" stroke-opacity="0.8" stroke-width="5" stroke-linecap="round"/>
<path d="M136 154C137.214 161.286 147.084 166.042 153 169" stroke="#FE1919" stroke-opacity="0.8" stroke-width="5" stroke-linecap="round"/>
<path d="M134 164C137.961 167.961 143.139 171.964 148 174.778C151.752 176.95 147 177.763 147 175" stroke="#FE1919" stroke-opacity="0.8" stroke-width="5" stroke-linecap="round"/>
<path d="M85 173C89.8596 170.427 95.6487 165.703 98 161" stroke="#FE1919" stroke-opacity="0.8" stroke-width="5" stroke-linecap="round"/>
<path d="M44 160C49.3226 154.991 57.1169 147 65 147" stroke="#FE1919" stroke-opacity="0.8" stroke-width="5" stroke-linecap="round"/>
<path d="M44 143C44.4525 144.584 52.4276 139.509 53.5556 139C58.1703 136.916 63.0104 135.499 68 135" stroke="#FE1919" stroke-opacity="0.8" stroke-width="5" stroke-linecap="round"/>
<path d="M143 143C148.559 141.809 153.44 138.031 159.111 137C164.93 135.942 170.072 135 176 135" stroke="#FE1919" stroke-opacity="0.8" stroke-width="5" stroke-linecap="round"/>
<path d="M175 258C175.692 268.385 174.138 278.587 171 288.556C169.43 293.544 167.355 299.097 163 302" stroke="#FE1919" stroke-opacity="0.8" stroke-width="5" stroke-linecap="round"/>
<path d="M179 273C177.295 279.181 176.262 285.692 175 292" stroke="#FE1919" stroke-opacity="0.8" stroke-width="5" stroke-linecap="round"/>
<path d="M183 275V279" stroke="#FE1919" stroke-opacity="0.8" stroke-width="5" stroke-linecap="round"/>
<path d="M213 234C217.645 249.097 228.245 240.198 232.778 230C235.148 224.666 236 218.268 236 212.5C236 206.836 238 202.537 238 197" stroke="#FE1919" stroke-opacity="0.8" stroke-width="5" stroke-linecap="round"/>
<path d="M218 170C221.78 166.64 230.774 165.9 235.5 168C243.176 171.411 245.054 178.569 244 187" stroke="#FE1919" stroke-opacity="0.8" stroke-width="5" stroke-linecap="round"/>
<path d="M214 171C213.494 175.805 212.235 180.367 211 185" stroke="#FE1919" stroke-opacity="0.8" stroke-width="5" stroke-linecap="round"/>
<path d="M200 102C203.516 108.68 209 117.144 209 125" stroke="#FE1919" stroke-opacity="0.8" stroke-width="5" stroke-linecap="round"/>
<path d="M200 67C204.73 72.6762 208.661 79.9844 211 87" stroke="#FE1919" stroke-opacity="0.8" stroke-width="5" stroke-linecap="round"/>
<path d="M200 62C209.276 71.0823 202 65.5001 202 61" stroke="#FE1919" stroke-opacity="0.8" stroke-width="5" stroke-linecap="round"/>
<path d="M190 40V42" stroke="#FE1919" stroke-opacity="0.8" stroke-width="5" stroke-linecap="round"/>
<path d="M196 33C202.237 39.4772 209.295 45.3571 213.5 53.4444C215.639 57.5573 219 60.1658 219 65" stroke="#FE1919" stroke-opacity="0.8" stroke-width="5" stroke-linecap="round"/>
<path d="M218 50C220.641 50.2934 221.315 52.946 222 55" stroke="#FE1919" stroke-opacity="0.8" stroke-width="5" stroke-linecap="round"/>
<path d="M130 27C133.733 27.2986 137.337 28.2674 141 29" stroke="#FE1919" stroke-opacity="0.8" stroke-width="5" stroke-linecap="round"/>
<path d="M148 8C155.435 9.12644 166.598 10.5576 172.944 15C175.095 16.5056 177.577 19.8078 180 19" stroke="#FE1919" stroke-opacity="0.8" stroke-width="5" stroke-linecap="round"/>
<path d="M163 3C167.916 5.23444 173.271 6.63573 178 9" stroke="#FE1919" stroke-opacity="0.8" stroke-width="5" stroke-linecap="round"/>
<path d="M17 56C18.2417 47.3082 28.6059 41.737 34 35.5C37.6489 31.2809 42.1735 28.8265 46 25" stroke="#FE1919" stroke-opacity="0.8" stroke-width="5" stroke-linecap="round"/>
<path d="M22 57C22.7202 56.3452 28.0374 52.026 28 53.3333C27.884 57.3932 26.1175 59.9217 23 62" stroke="#FE1919" stroke-opacity="0.8" stroke-width="5" stroke-linecap="round"/>
<path d="M12 73C14.8064 72.4897 17.4227 68.4226 16.9444 73.4444C16.7277 75.7201 15.107 76.9643 18 76" stroke="#FE1919" stroke-opacity="0.8" stroke-width="5" stroke-linecap="round"/>
<path d="M48 22C56.0286 17.5396 64.3011 10.8996 73 8" stroke="#FE1919" stroke-opacity="0.8" stroke-width="5" stroke-linecap="round"/>
<path d="M14 91C14.7333 91.9166 19.0773 88.5767 20 88" stroke="#FE1919" stroke-opacity="0.8" stroke-width="5" stroke-linecap="round"/>
<path d="M26 151C26 161.556 20.8933 170.973 20.0556 181.444C19.2864 191.059 24.7811 201.562 29 210" stroke="#FE1919" stroke-opacity="0.8" stroke-width="5" stroke-linecap="round"/>
<path d="M24 218C24 227.47 27.6534 236.914 28 246.444C28.1832 251.482 29.2265 257.799 30.2222 262.778C30.8125 265.729 31.6721 271.221 33.4444 273.5C35.0513 275.566 36.2275 278.284 38 280.5C39.4363 282.295 42.3537 283.186 43.4444 285.056C47.4161 291.864 55.9651 295.474 62 300" stroke="#FE1919" stroke-opacity="0.8" stroke-width="5" stroke-linecap="round"/>
<path d="M57 276C57.0101 275.949 60.1128 283.629 60.4444 284.889C62.6812 293.389 65.9046 301.65 69.4444 309.667C70.927 313.024 71.6922 318.082 75 320.222C76.3587 321.101 78 322.382 78 324" stroke="#FE1919" stroke-opacity="0.8" stroke-width="5" stroke-linecap="round"/>
<path d="M60 306C63.8569 310.005 68.7121 318.237 74 320" stroke="#FE1919" stroke-opacity="0.8" stroke-width="5" stroke-linecap="round"/>
<path d="M52 298C57.8079 300.987 62.916 304.933 68 309" stroke="#FE1919" stroke-opacity="0.8" stroke-width="5" stroke-linecap="round"/>
<path d="M112 350C121.13 346.522 132.121 346.643 141.556 343.556C143.799 342.821 148 342.426 148 340" stroke="#FE1919" stroke-opacity="0.8" stroke-width="5" stroke-linecap="round"/>
<path d="M140 350C141.738 349.834 149.914 346.602 148.944 348.056C147.431 350.325 149.104 350 151 350" stroke="#FE1919" stroke-opacity="0.8" stroke-width="5" stroke-linecap="round"/>
<path d="M160 330C159.919 329.968 165.947 325.034 166.778 324.222C168.508 322.532 170 321.473 170 319" stroke="#FE1919" stroke-opacity="0.8" stroke-width="5" stroke-linecap="round"/>
<path d="M161 337C167.364 334.308 165.037 330.177 162.444 337C160.486 342.154 162.619 340.898 166 338" stroke="#FE1919" stroke-opacity="0.8" stroke-width="5" stroke-linecap="round"/>
<path d="M159 366C162.48 368.088 171.727 349.818 167 364" stroke="#FE1919" stroke-opacity="0.8" stroke-width="5" stroke-linecap="round"/>
<path d="M74 334C87.0833 334.727 99.3778 344.541 113 340" stroke="#FE1919" stroke-opacity="0.8" stroke-width="5" stroke-linecap="round"/>
<path d="M83 340C87.1317 340.826 90.4549 343 95 343" stroke="#FE1919" stroke-opacity="0.8" stroke-width="5" stroke-linecap="round"/>
<path d="M85 357C93.7223 355.698 103.169 353.778 112 354.778C114.124 355.018 115.155 354.922 117 354" stroke="#FE1919" stroke-opacity="0.8" stroke-width="5" stroke-linecap="round"/>
<path d="M121 432C129.986 431.251 139.631 426.209 148.222 423.611C153.216 422.101 157.099 419.351 160 415" stroke="#FE1919" stroke-opacity="0.8" stroke-width="5" stroke-linecap="round"/>
<path d="M136 439C138.321 437.036 141.143 434.952 144 434" stroke="#FE1919" stroke-opacity="0.8" stroke-width="5" stroke-linecap="round"/>
<path d="M141 440C140.917 440 143.183 439.327 144 439" stroke="#FE1919" stroke-opacity="0.8" stroke-width="5" stroke-linecap="round"/>
<path d="M142 448C141.756 450.198 143.771 451.457 144 451" stroke="#FE1919" stroke-opacity="0.8" stroke-width="5" stroke-linecap="round"/>
<path d="M4 496C1.99758 496 2.86651 496.655 4.44445 496.333C11.743 494.847 18.7944 489.551 25.2778 486.111C29.0245 484.123 33.7969 481.981 36.8333 478.944C38.7205 477.057 39.3935 474.142 41 472" stroke="#FE1919" stroke-opacity="0.8" stroke-width="5" stroke-linecap="round"/>
<path d="M33 480C29.3153 487.369 75.1031 491 80 491" stroke="#FE1919" stroke-opacity="0.8" stroke-width="5" stroke-linecap="round"/>
<path d="M72 256C72.8044 252.38 79.3267 247.673 82 245" stroke="#FE1919" stroke-opacity="0.8" stroke-width="5" stroke-linecap="round"/>
<path d="M83 259C86.7849 258.656 90.2609 256.623 94 256" stroke="#FE1919" stroke-opacity="0.8" stroke-width="5" stroke-linecap="round"/>
<path d="M128 173C128 181.599 126.607 189.81 132 197" stroke="#FE1919" stroke-opacity="0.8" stroke-width="5" stroke-linecap="round"/>
<path d="M133 186C131.176 186.521 135.344 191.18 136 192" stroke="#FE1919" stroke-opacity="0.8" stroke-width="5" stroke-linecap="round"/>
<path d="M141 200C142.626 202.927 145.15 205.225 147 208" stroke="#FE1919" stroke-opacity="0.8" stroke-width="5" stroke-linecap="round"/>
<path d="M147 297C143.073 297 154.25 293.978 157.889 292.5C160.637 291.384 162.681 289.546 165 288" stroke="#FE1919" stroke-opacity="0.8" stroke-width="5" stroke-linecap="round"/>
<path d="M147 303C149.844 304.422 155.349 301.06 158 300" stroke="#FE1919" stroke-opacity="0.8" stroke-width="5" stroke-linecap="round"/>
<path d="M189 274C194.096 273.464 198.974 271.019 203 268" stroke="#FE1919" stroke-opacity="0.8" stroke-width="5" stroke-linecap="round"/>
<path d="M197 84C192.201 79.8006 203.794 94.8083 206.778 100.444C208.293 103.307 211.369 107.388 213.5 109.944C215.515 112.363 216 118.835 216 122" stroke="#FE1919" stroke-opacity="0.8" stroke-width="5" stroke-linecap="round"/>
</svg>
