<svg width="150" height="150" viewBox="0 0 150 150" fill="none" xmlns="http://www.w3.org/2000/svg"><rect x="0" y="0" width="11" height="11" fill='red'/><rect x="10" y="0" width="11" height="11" fill='rgba(1,1,1,0)'/><rect x="20" y="0" width="11" height="11" fill='rgba(1,1,1,0)'/><rect x="30" y="0" width="11" height="11" fill='rgba(1,1,1,0)'/><rect x="40" y="0" width="11" height="11" fill='rgba(1,1,1,0)'/><rect x="50" y="0" width="11" height="11" fill='none'/><rect x="60" y="0" width="11" height="11" fill='none'/><rect x="70" y="0" width="11" height="11" fill='none'/><rect x="80" y="0" width="11" height="11" fill='none'/><rect x="90" y="0" width="11" height="11" fill='none'/><rect x="100" y="0" width="11" height="11" fill='none'/><rect x="110" y="0" width="11" height="11" fill='none'/><rect x="120" y="0" width="11" height="11" fill='none'/><rect x="130" y="0" width="11" height="11" fill='none'/><rect x="140" y="0" width="11" height="11" fill='none'/><rect x="0" y="10" width="11" height="11" fill='none'/><rect x="10" y="10" width="11" height="11" fill='red'/><rect x="20" y="10" width="11" height="11" fill='rgba(1,1,1,0)'/><rect x="30" y="10" width="11" height="11" fill='red'/><rect x="40" y="10" width="11" height="11" fill='none'/><rect x="50" y="10" width="11" height="11" fill='none'/><rect x="60" y="10" width="11" height="11" fill='none'/><rect x="70" y="10" width="11" height="11" fill='none'/><rect x="80" y="10" width="11" height="11" fill='none'/><rect x="90" y="10" width="11" height="11" fill='none'/><rect x="100" y="10" width="11" height="11" fill='none'/><rect x="110" y="10" width="11" height="11" fill='none'/><rect x="120" y="10" width="11" height="11" fill='none'/><rect x="130" y="10" width="11" height="11" fill='none'/><rect x="140" y="10" width="11" height="11" fill='none'/><rect x="0" y="20" width="11" height="11" fill='none'/><rect x="10" y="20" width="11" height="11" fill='rgba(1,1,1,0)'/><rect x="20" y="20" width="11" height="11" fill='red'/><rect x="30" y="20" width="11" height="11" fill='red'/><rect x="40" y="20" width="11" height="11" fill='rgba(1,1,1,0)'/><rect x="50" y="20" width="11" height="11" fill='none'/><rect x="60" y="20" width="11" height="11" fill='none'/><rect x="70" y="20" width="11" height="11" fill='none'/><rect x="80" y="20" width="11" height="11" fill='none'/><rect x="90" y="20" width="11" height="11" fill='none'/><rect x="100" y="20" width="11" height="11" fill='none'/><rect x="110" y="20" width="11" height="11" fill='none'/><rect x="120" y="20" width="11" height="11" fill='none'/><rect x="130" y="20" width="11" height="11" fill='none'/><rect x="140" y="20" width="11" height="11" fill='none'/><rect x="0" y="30" width="11" height="11" fill='none'/><rect x="10" y="30" width="11" height="11" fill='red'/><rect x="20" y="30" width="11" height="11" fill='red'/><rect x="30" y="30" width="11" height="11" fill='red'/><rect x="40" y="30" width="11" height="11" fill='green'/><rect x="50" y="30" width="11" height="11" fill='yellow'/><rect x="60" y="30" width="11" height="11" fill='yellow'/><rect x="70" y="30" width="11" height="11" fill='green'/><rect x="80" y="30" width="11" height="11" fill='green'/><rect x="90" y="30" width="11" height="11" fill='yellow'/><rect x="100" y="30" width="11" height="11" fill='yellow'/><rect x="110" y="30" width="11" height="11" fill='none'/><rect x="120" y="30" width="11" height="11" fill='none'/><rect x="130" y="30" width="11" height="11" fill='none'/><rect x="140" y="30" width="11" height="11" fill='none'/><rect x="0" y="40" width="11" height="11" fill='none'/><rect x="10" y="40" width="11" height="11" fill='none'/><rect x="20" y="40" width="11" height="11" fill='none'/><rect x="30" y="40" width="11" height="11" fill='green'/><rect x="40" y="40" width="11" height="11" fill='green'/><rect x="50" y="40" width="11" height="11" fill='yellow'/><rect x="60" y="40" width="11" height="11" fill='yellow'/><rect x="70" y="40" width="11" height="11" fill='green'/><rect x="80" y="40" width="11" height="11" fill='green'/><rect x="90" y="40" width="11" height="11" fill='yellow'/><rect x="100" y="40" width="11" height="11" fill='yellow'/><rect x="110" y="40" width="11" height="11" fill='none'/><rect x="120" y="40" width="11" height="11" fill='none'/><rect x="130" y="40" width="11" height="11" fill='none'/><rect x="140" y="40" width="11" height="11" fill='none'/><rect x="0" y="50" width="11" height="11" fill='none'/><rect x="10" y="50" width="11" height="11" fill='none'/><rect x="20" y="50" width="11" height="11" fill='none'/><rect x="30" y="50" width="11" height="11" fill='yellow'/><rect x="40" y="50" width="11" height="11" fill='yellow'/><rect x="50" y="50" width="11" height="11" fill='green'/><rect x="60" y="50" width="11" height="11" fill='green'/><rect x="70" y="50" width="11" height="11" fill='yellow'/><rect x="80" y="50" width="11" height="11" fill='yellow'/><rect x="90" y="50" width="11" height="11" fill='green'/><rect x="100" y="50" width="11" height="11" fill='green'/><rect x="110" y="50" width="11" height="11" fill='none'/><rect x="120" y="50" width="11" height="11" fill='none'/><rect x="130" y="50" width="11" height="11" fill='none'/><rect x="140" y="50" width="11" height="11" fill='none'/><rect x="0" y="60" width="11" height="11" fill='none'/><rect x="10" y="60" width="11" height="11" fill='none'/><rect x="20" y="60" width="11" height="11" fill='none'/><rect x="30" y="60" width="11" height="11" fill='yellow'/><rect x="40" y="60" width="11" height="11" fill='yellow'/><rect x="50" y="60" width="11" height="11" fill='green'/><rect x="60" y="60" width="11" height="11" fill='green'/><rect x="70" y="60" width="11" height="11" fill='yellow'/><rect x="80" y="60" width="11" height="11" fill='yellow'/><rect x="90" y="60" width="11" height="11" fill='green'/><rect x="100" y="60" width="11" height="11" fill='green'/><rect x="110" y="60" width="11" height="11" fill='none'/><rect x="120" y="60" width="11" height="11" fill='none'/><rect x="130" y="60" width="11" height="11" fill='none'/><rect x="140" y="60" width="11" height="11" fill='none'/><rect x="0" y="70" width="11" height="11" fill='none'/><rect x="10" y="70" width="11" height="11" fill='none'/><rect x="20" y="70" width="11" height="11" fill='none'/><rect x="30" y="70" width="11" height="11" fill='green'/><rect x="40" y="70" width="11" height="11" fill='green'/><rect x="50" y="70" width="11" height="11" fill='yellow'/><rect x="60" y="70" width="11" height="11" fill='yellow'/><rect x="70" y="70" width="11" height="11" fill='green'/><rect x="80" y="70" width="11" height="11" fill='green'/><rect x="90" y="70" width="11" height="11" fill='yellow'/><rect x="100" y="70" width="11" height="11" fill='yellow'/><rect x="110" y="70" width="11" height="11" fill='none'/><rect x="120" y="70" width="11" height="11" fill='none'/><rect x="130" y="70" width="11" height="11" fill='none'/><rect x="140" y="70" width="11" height="11" fill='none'/><rect x="0" y="80" width="11" height="11" fill='none'/><rect x="10" y="80" width="11" height="11" fill='none'/><rect x="20" y="80" width="11" height="11" fill='none'/><rect x="30" y="80" width="11" height="11" fill='green'/><rect x="40" y="80" width="11" height="11" fill='green'/><rect x="50" y="80" width="11" height="11" fill='yellow'/><rect x="60" y="80" width="11" height="11" fill='yellow'/><rect x="70" y="80" width="11" height="11" fill='green'/><rect x="80" y="80" width="11" height="11" fill='green'/><rect x="90" y="80" width="11" height="11" fill='yellow'/><rect x="100" y="80" width="11" height="11" fill='yellow'/><rect x="110" y="80" width="11" height="11" fill='none'/><rect x="120" y="80" width="11" height="11" fill='none'/><rect x="130" y="80" width="11" height="11" fill='none'/><rect x="140" y="80" width="11" height="11" fill='none'/><rect x="0" y="90" width="11" height="11" fill='none'/><rect x="10" y="90" width="11" height="11" fill='none'/><rect x="20" y="90" width="11" height="11" fill='none'/><rect x="30" y="90" width="11" height="11" fill='yellow'/><rect x="40" y="90" width="11" height="11" fill='yellow'/><rect x="50" y="90" width="11" height="11" fill='green'/><rect x="60" y="90" width="11" height="11" fill='green'/><rect x="70" y="90" width="11" height="11" fill='yellow'/><rect x="80" y="90" width="11" height="11" fill='yellow'/><rect x="90" y="90" width="11" height="11" fill='green'/><rect x="100" y="90" width="11" height="11" fill='green'/><rect x="110" y="90" width="11" height="11" fill='none'/><rect x="120" y="90" width="11" height="11" fill='none'/><rect x="130" y="90" width="11" height="11" fill='none'/><rect x="140" y="90" width="11" height="11" fill='none'/><rect x="0" y="100" width="11" height="11" fill='none'/><rect x="10" y="100" width="11" height="11" fill='none'/><rect x="20" y="100" width="11" height="11" fill='none'/><rect x="30" y="100" width="11" height="11" fill='yellow'/><rect x="40" y="100" width="11" height="11" fill='yellow'/><rect x="50" y="100" width="11" height="11" fill='green'/><rect x="60" y="100" width="11" height="11" fill='green'/><rect x="70" y="100" width="11" height="11" fill='yellow'/><rect x="80" y="100" width="11" height="11" fill='yellow'/><rect x="90" y="100" width="11" height="11" fill='green'/><rect x="100" y="100" width="11" height="11" fill='blue'/><rect x="110" y="100" width="11" height="11" fill='blue'/><rect x="120" y="100" width="11" height="11" fill='blue'/><rect x="130" y="100" width="11" height="11" fill='none'/><rect x="140" y="100" width="11" height="11" fill='none'/><rect x="0" y="110" width="11" height="11" fill='none'/><rect x="10" y="110" width="11" height="11" fill='none'/><rect x="20" y="110" width="11" height="11" fill='none'/><rect x="30" y="110" width="11" height="11" fill='none'/><rect x="40" y="110" width="11" height="11" fill='none'/><rect x="50" y="110" width="11" height="11" fill='none'/><rect x="60" y="110" width="11" height="11" fill='none'/><rect x="70" y="110" width="11" height="11" fill='none'/><rect x="80" y="110" width="11" height="11" fill='none'/><rect x="90" y="110" width="11" height="11" fill='none'/><rect x="100" y="110" width="11" height="11" fill='blue'/><rect x="110" y="110" width="11" height="11" fill='blue'/><rect x="120" y="110" width="11" height="11" fill='none'/><rect x="130" y="110" width="11" height="11" fill='none'/><rect x="140" y="110" width="11" height="11" fill='none'/><rect x="0" y="120" width="11" height="11" fill='none'/><rect x="10" y="120" width="11" height="11" fill='none'/><rect x="20" y="120" width="11" height="11" fill='none'/><rect x="30" y="120" width="11" height="11" fill='none'/><rect x="40" y="120" width="11" height="11" fill='none'/><rect x="50" y="120" width="11" height="11" fill='none'/><rect x="60" y="120" width="11" height="11" fill='none'/><rect x="70" y="120" width="11" height="11" fill='none'/><rect x="80" y="120" width="11" height="11" fill='none'/><rect x="90" y="120" width="11" height="11" fill='none'/><rect x="100" y="120" width="11" height="11" fill='blue'/><rect x="110" y="120" width="11" height="11" fill='none'/><rect x="120" y="120" width="11" height="11" fill='blue'/><rect x="130" y="120" width="11" height="11" fill='none'/><rect x="140" y="120" width="11" height="11" fill='none'/><rect x="0" y="130" width="11" height="11" fill='none'/><rect x="10" y="130" width="11" height="11" fill='none'/><rect x="20" y="130" width="11" height="11" fill='none'/><rect x="30" y="130" width="11" height="11" fill='none'/><rect x="40" y="130" width="11" height="11" fill='none'/><rect x="50" y="130" width="11" height="11" fill='none'/><rect x="60" y="130" width="11" height="11" fill='none'/><rect x="70" y="130" width="11" height="11" fill='none'/><rect x="80" y="130" width="11" height="11" fill='none'/><rect x="90" y="130" width="11" height="11" fill='none'/><rect x="100" y="130" width="11" height="11" fill='none'/><rect x="110" y="130" width="11" height="11" fill='none'/><rect x="120" y="130" width="11" height="11" fill='none'/><rect x="130" y="130" width="11" height="11" fill='blue'/><rect x="140" y="130" width="11" height="11" fill='rgba(1,1,1,0)'/><rect x="0" y="140" width="11" height="11" fill='none'/><rect x="10" y="140" width="11" height="11" fill='none'/><rect x="20" y="140" width="11" height="11" fill='none'/><rect x="30" y="140" width="11" height="11" fill='none'/><rect x="40" y="140" width="11" height="11" fill='none'/><rect x="50" y="140" width="11" height="11" fill='none'/><rect x="60" y="140" width="11" height="11" fill='none'/><rect x="70" y="140" width="11" height="11" fill='none'/><rect x="80" y="140" width="11" height="11" fill='none'/><rect x="90" y="140" width="11" height="11" fill='none'/><rect x="100" y="140" width="11" height="11" fill='none'/><rect x="110" y="140" width="11" height="11" fill='none'/><rect x="120" y="140" width="11" height="11" fill='none'/><rect x="130" y="140" width="11" height="11" fill='none'/><rect x="140" y="140" width="11" height="11" fill='none'/></svg>