<svg width="260" height="520" viewBox="0 0 260 520" fill="none" xmlns="http://www.w3.org/2000/svg">
<path d="M119 111C119 113.191 121 114.253 121 116.556C121 119.757 122 122.86 122 126.222C122 131.634 120 136.666 120 142C120 149.131 120.997 154.602 115.5 159C114.442 159.846 111.13 160.957 111 162C110.661 164.715 108.71 168.162 108 171" stroke="#FEDC25" stroke-opacity="0.8" stroke-width="5" stroke-linecap="round"/>
<path d="M51 77C59.5405 74.6708 67.5274 72.1115 76.5556 72.5556C83.1327 72.879 89.8187 73.0253 96.3333 71.7778C99.8529 71.1038 97.4742 71.8316 95.5556 71.9444C85.4521 72.5388 55.5702 70.9547 65.3889 68.5C72.6363 66.6881 81.1898 67.2987 88.5556 67.7778C89.7294 67.8541 100.299 69.9097 95.2222 67.9444C90.2161 66.0066 84.9545 65.2499 79.6111 65.0556C78.2912 65.0076 69.249 66.4078 72.8889 65.7778C75.1061 65.394 85.3251 61.332 83.9444 61.1111C81.5869 60.7339 69.7026 63.4804 68.7778 62.5556C67.6059 61.3837 71.9316 61.5355 73.5 61C75.1165 60.448 78.7188 60.0694 80.0556 59C80.8924 58.3305 78.0424 58.2489 77 58C74.7532 57.4635 72.4326 57 70.1111 57C67.9373 57 74.3817 58 76.5556 58C82.1814 58 85.8103 57.0759 91 55" stroke="#FEDC25" stroke-opacity="0.8" stroke-width="5" stroke-linecap="round"/>
<path d="M155 80C161.932 76.5339 169.472 74 177.333 74C185.34 74 161.34 75 153.333 75C147.463 75 153.088 74.4542 155.611 73.3889C159.905 71.576 164.479 70.4121 168.722 68.5556C170.24 67.8915 162.487 68.0122 161.556 68.0556C161.02 68.0804 152.917 69.3357 152.833 68.8333C152.488 66.7631 172.4 60.4609 169.889 59.4444C166.522 58.0815 155.367 59 159 59C163.145 59 167.244 58.9831 171.333 58.2222C172.96 57.9196 154.931 57.3027 161.444 56C166.583 54.9723 171.93 55.6821 177 54.5556C179.834 53.9258 182.067 53 185 53" stroke="#FEDC25" stroke-opacity="0.8" stroke-width="5" stroke-linecap="round"/>
<path d="M63 153C63 154.073 90.4204 152.159 93 147" stroke="#FEDC25" stroke-opacity="0.8" stroke-width="5" stroke-linecap="round"/>
<path d="M64 160C70.4428 158.88 89.42 154.275 83.3333 156.667C77.9776 158.771 73.0444 162.304 67.6667 164.556C65.5256 165.452 74.5426 163.191 76.1111 162.778C80.0202 161.749 71.9443 164.673 71.2222 165C70.0898 165.513 62.6822 168.403 67.3333 167.778C71.0641 167.277 81.3448 162.964 78.3333 165.222C77.2351 166.046 67.7935 169.268 67.8889 170.222C68.1767 173.101 83.8277 167.391 85 167" stroke="#FEDC25" stroke-opacity="0.8" stroke-width="5" stroke-linecap="round"/>
<path d="M167 159C175.031 159.201 182.926 159 190.944 159C194.062 159 188.812 160.224 188.056 160.444C184.983 161.341 181.726 161.637 178.611 162.444C177.13 162.828 168.619 165.412 173.556 167.444C176.322 168.584 180.736 167.931 175.111 169.056C173.363 169.405 181.856 171.783 176.222 172C170.657 172.214 175.098 168.545 175.778 165.222C176.488 161.752 170.846 157.561 174 157.444C183.921 157.077 191.555 152.889 201 151" stroke="#FEDC25" stroke-opacity="0.8" stroke-width="5" stroke-linecap="round"/>
<path d="M187 155C189.145 153.245 191.793 152.765 194 151" stroke="#FEDC25" stroke-opacity="0.8" stroke-width="5" stroke-linecap="round"/>
<path d="M176 173C179.887 173 188.34 169.58 191.444 171.556C194.276 173.358 183.209 173.016 182.222 173C179.72 172.96 177.274 172.598 174.833 172.056C172.331 171.499 179.973 171.876 182.5 171.444C183.401 171.291 191.222 170.202 191.222 169C191.222 167.603 184.032 167.999 183 168.222C176.021 169.731 190.977 164.877 192.722 164.056C200.071 160.597 187.17 161.786 185.444 161.556C185.364 161.545 193.845 156.399 191.833 154.556C190.966 153.761 187.51 153.21 188.667 153C192.381 152.325 195.467 151.359 199 150" stroke="#FEDC25" stroke-opacity="0.8" stroke-width="5" stroke-linecap="round"/>
<path d="M108 279C114.831 275.384 126.261 270.261 133 277" stroke="#FEDC25" stroke-opacity="0.8" stroke-width="5" stroke-linecap="round"/>
<path d="M118 281L123 279" stroke="#FEDC25" stroke-opacity="0.8" stroke-width="5" stroke-linecap="round"/>
<path d="M51 167C52.7235 162.864 57.7662 162.351 60 159" stroke="#FEDC25" stroke-opacity="0.8" stroke-width="5" stroke-linecap="round"/>
<path d="M57 168C58.7855 167.055 60.1351 165.622 62 165" stroke="#FEDC25" stroke-opacity="0.8" stroke-width="5" stroke-linecap="round"/>
<path d="M59 171C62.2148 168.077 69.1922 165.616 71 162" stroke="#FEDC25" stroke-opacity="0.8" stroke-width="5" stroke-linecap="round"/>
<path d="M65 279C65 284.639 67 289.353 67 295C67 302.167 67 309.333 67 316.5C67 329.231 64 341.43 64 354" stroke="#FEDC25" stroke-opacity="0.8" stroke-width="5" stroke-linecap="round"/>
<path d="M74 49C80.0027 43.6291 90.3648 43.7635 98 43" stroke="#FEDC25" stroke-opacity="0.8" stroke-width="5" stroke-linecap="round"/>
<path d="M81 37C85.205 35.9487 89.0084 34.6632 93 33" stroke="#FEDC25" stroke-opacity="0.8" stroke-width="5" stroke-linecap="round"/>
<path d="M87 31C88.885 30.4859 90.3092 29.8454 92 29" stroke="#FEDC25" stroke-opacity="0.8" stroke-width="5" stroke-linecap="round"/>
<path d="M30 135C30.7625 134.905 23.2625 130 20.5 130C15.3958 130 11.0358 131.75 7.99999 136C5.6446 139.298 2.02924 145.847 3.77777 150C5.04027 152.998 5.66211 158.959 5.99999 162C7.21842 172.966 11.129 183.959 13.0555 194.556C14.6998 203.599 25.8617 214.092 35 208" stroke="#FEDC25" stroke-opacity="0.8" stroke-width="5" stroke-linecap="round"/>
<path d="M23 195C26.3846 194.87 29.5851 194 33 194" stroke="#FEDC25" stroke-opacity="0.8" stroke-width="5" stroke-linecap="round"/>
<path d="M25 199C27.914 200.11 30.9257 200 34 200" stroke="#FEDC25" stroke-opacity="0.8" stroke-width="5" stroke-linecap="round"/>
<path d="M39 74C39 67.9371 38.7757 61.8349 39 55.7778C39.2187 49.874 41.9931 43.2881 43.0556 37.4444C43.5615 34.6617 44.6833 30.5993 45.7778 28C46.7183 25.7664 45.932 22.6078 47.6111 20.5556C49.695 18.0086 51.119 15.4948 53 12.7778C55.5941 9.03079 59.7389 6.26112 63 3" stroke="#FEDC25" stroke-opacity="0.8" stroke-width="5" stroke-linecap="round"/>
<path d="M123 345C118.528 345 130.528 339 135 339" stroke="#FEDC25" stroke-opacity="0.8" stroke-width="5" stroke-linecap="round"/>
<path d="M90 372C90 386.672 101.556 402.556 111 412" stroke="#FEDC25" stroke-opacity="0.8" stroke-width="5" stroke-linecap="round"/>
<path d="M76 365C80.6836 361.989 81.2776 355.722 85 352" stroke="#FEDC25" stroke-opacity="0.8" stroke-width="5" stroke-linecap="round"/>
<path d="M81 375C82.8803 371.239 84.8559 367.513 86.5556 363.667C87.5259 361.471 87 367.274 87 368" stroke="#FEDC25" stroke-opacity="0.8" stroke-width="5" stroke-linecap="round"/>
<path d="M87 380C93.9977 369.115 87.8139 378.703 91.5556 382.444C93.3756 384.264 93.8056 387.611 95 390" stroke="#FEDC25" stroke-opacity="0.8" stroke-width="5" stroke-linecap="round"/>
<path d="M71 306C73.2531 313.708 75.6042 321.468 78.5556 328.944C79.9317 332.431 82.2606 335.303 83 339" stroke="#FEDC25" stroke-opacity="0.8" stroke-width="5" stroke-linecap="round"/>
<path d="M23 368C26.6641 364.743 26.6091 358.598 28.7778 354C30.5494 350.244 32.2922 340.854 36 339" stroke="#FEDC25" stroke-opacity="0.8" stroke-width="5" stroke-linecap="round"/>
<path d="M23 385C23.7131 377.869 29.0186 371.004 31.8889 364.611C34.022 359.86 36.3355 355.441 39 351" stroke="#FEDC25" stroke-opacity="0.8" stroke-width="5" stroke-linecap="round"/>
<path d="M21 394C25.7111 384.712 30.744 375.341 37 367" stroke="#FEDC25" stroke-opacity="0.8" stroke-width="5" stroke-linecap="round"/>
<path d="M26 400C29.5732 392.496 35.4459 384.662 38 377" stroke="#FEDC25" stroke-opacity="0.8" stroke-width="5" stroke-linecap="round"/>
<path d="M29 401C32.3529 395.827 35.2478 390.504 38 385" stroke="#FEDC25" stroke-opacity="0.8" stroke-width="5" stroke-linecap="round"/>
<path d="M27 409C30.5371 406.386 32.8119 402.587 36 399.611C38.3395 397.428 33.2996 405.418 32.1111 408.389C31.8166 409.125 30.4457 414.903 30.7778 414.722C33.4145 413.284 36.7778 404.997 36.7778 408C36.7778 410.814 34.643 414.227 34 417C33.3802 419.673 35.1889 421.183 34.5556 423.444C34.38 424.071 32.9408 428.468 33.2222 428.222C33.4424 428.03 34.7347 426.596 34.3333 427.667C34.2135 427.986 32.0993 431.244 32.1667 431.278C32.8001 431.595 34.5557 427.555 33.3333 428.778C31.6118 430.499 23.6867 442.7 27.8333 433.889C28.2465 433.011 23.8945 440.598 24 440C24.3669 437.921 27.91 436.096 29.2222 434.556C31.7734 431.561 33.9242 428.321 36 425" stroke="#FEDC25" stroke-opacity="0.8" stroke-width="5" stroke-linecap="round"/>
<path d="M222 413C221.383 412.824 224.629 405.154 225 404C226.753 398.545 228.129 392.472 228.778 386.778C229.845 377.406 226.761 366.958 229 358" stroke="#FEDC25" stroke-opacity="0.8" stroke-width="5" stroke-linecap="round"/>
<path d="M219 400C220.032 391.748 224.363 384.183 226 376" stroke="#FEDC25" stroke-opacity="0.8" stroke-width="5" stroke-linecap="round"/>
<path d="M222 386C223.372 380.924 225.5 376.048 226.556 370.889C227.278 367.356 226.763 363.777 227.222 360.222C227.713 356.42 227 344.888 227 348.722C227 349.403 226.76 354.907 228.056 353.611C228.732 352.935 230.937 346.7 230.389 349.333C228.685 357.51 227.622 365.734 229 374" stroke="#FEDC25" stroke-opacity="0.8" stroke-width="5" stroke-linecap="round"/>
<path d="M203 433C205.627 427.933 208.67 423.104 211.222 418C211.734 416.976 212.859 412.265 213.944 411.722C214.179 411.605 213.613 415.522 214.111 413.778C214.83 411.262 216.486 409.572 217 407" stroke="#FEDC25" stroke-opacity="0.8" stroke-width="5" stroke-linecap="round"/>
</svg>
